  0
SECTION
  2
HEADER
  9
$ACADVER
  1
AC1009
  9
$EXTMIN
 10
0.0
 20
0.0
 30
0.0
  9
$EXTMAX
 10
1000.0
 20
1000.0
 30
0.0
  9
$FILLMODE
 70
 0
  9
$SPLFRAME
 70
 1
  0
ENDSEC
  0
SECTION
  2
TABLES
  0
TABLE
  2
LAYER
 70
1
  0
LAYER
  2
0
 70
     0
 62
     7
  6
CONTINUOUS
  0
ENDTAB
  0
ENDSEC
  0
SECTION
  2
ENTITIES
  0
POLYLINE
  8
0
 62
     0
 66
     1
 10
0
 20
0
 30
0.0
 40
1.94782
 41
1.94782
  0
VERTEX
  8
0
 10
0.742731
 20
4.79904
 30
0.0
 40
0.0270531
 41
0.0270531
  0
VERTEX
  8
0
 10
0.221029
 20
4.79904
 30
0.0
 40
0.0270531
 41
0.0270531
  0
SEQEND
 8
0
  0
POLYLINE
  8
0
 62
     0
 66
     1
 10
0
 20
0
 30
0.0
 40
1.94782
 41
1.94782
  0
VERTEX
  8
0
 10
0.742731
 20
4.44151
 30
0.0
 40
0.0270531
 41
0.0270531
  0
VERTEX
  8
0
 10
0.221029
 20
4.44151
 30
0.0
 40
0.0270531
 41
0.0270531
  0
SEQEND
 8
0
  0
POLYLINE
  8
0
 62
     0
 66
     1
 10
0
 20
0
 30
0.0
 70
     1
 40
0
 41
0
  0
VERTEX
  8
0
 10
0.0800239
 20
4.85682
 30
0.0
 40
0
 41
0
  0
VERTEX
  8
0
 10
0.0510525
 20
4.77843
 30
0.0
 40
0
 41
0
  0
VERTEX
  8
0
 10
0.109049
 20
4.77843
 30
0.0
 40
0
 41
0
  0
VERTEX
  8
0
 10
0.0800239
 20
4.85682
 30
0.0
 40
0
 41
0
  0
SEQEND
 8
0
  0
POLYLINE
  8
0
 62
     0
 66
     1
 10
0
 20
0
 30
0.0
 70
     1
 40
0
 41
0
  0
VERTEX
  8
0
 10
0.0679796
 20
4.87788
 30
0.0
 40
0
 41
0
  0
VERTEX
  8
0
 10
0.0921767
 20
4.87788
 30
0.0
 40
0
 41
0
  0
VERTEX
  8
0
 10
0.152289
 20
4.72017
 30
0.0
 40
0
 41
0
  0
VERTEX
  8
0
 10
0.1301
 20
4.72017
 30
0.0
 40
0
 41
0
  0
VERTEX
  8
0
 10
0.115723
 20
4.76058
 30
0.0
 40
0
 41
0
  0
VERTEX
  8
0
 10
0.0445964
 20
4.76058
 30
0.0
 40
0
 41
0
  0
VERTEX
  8
0
 10
0.0302192
 20
4.72017
 30
0.0
 40
0
 41
0
  0
VERTEX
  8
0
 10
0.007704
 20
4.72017
 30
0.0
 40
0
 41
0
  0
VERTEX
  8
0
 10
0.0679796
 20
4.87788
 30
0.0
 40
0
 41
0
  0
SEQEND
 8
0
  0
POLYLINE
  8
0
 62
     172
 66
     1
 10
0
 20
0
 30
0.0
 70
     1
 40
1.94782
 41
1.94782
  0
VERTEX
  8
0
 10
0.738661
 20
4.93901
 30
0.0
 40
0.0270531
 41
0.0270531
  0
VERTEX
  8
0
 10
0.782064
 20
4.93869
 30
0.0
 40
0.0270531
 41
0.0270531
  0
VERTEX
  8
0
 10
1.21642
 20
4.93479
 30
0.0
 40
0.0270531
 41
0.0270531
  0
VERTEX
  8
0
 10
1.25982
 20
4.93197
 30
0.0
 40
0.0270531
 41
0.0270531
  0
VERTEX
  8
0
 10
1.27208
 20
4.92996
 30
0.0
 40
0.0270531
 41
0.0270531
  0
VERTEX
  8
0
 10
1.30859
 20
4.92111
 30
0.0
 40
0.0270531
 41
0.0270531
  0
VERTEX
  8
0
 10
1.34646
 20
4.90593
 30
0.0
 40
0.0270531
 41
0.0270531
  0
VERTEX
  8
0
 10
1.37858
 20
4.88525
 30
0.0
 40
0.0270531
 41
0.0270531
  0
VERTEX
  8
0
 10
1.40267
 20
4.86501
 30
0.0
 40
0.0270531
 41
0.0270531
  0
VERTEX
  8
0
 10
1.41032
 20
4.85786
 30
0.0
 40
0.0270531
 41
0.0270531
  0
VERTEX
  8
0
 10
1.42344
 20
4.84506
 30
0.0
 40
0.0270531
 41
0.0270531
  0
VERTEX
  8
0
 10
1.45574
 20
4.7991
 30
0.0
 40
0.0270531
 41
0.0270531
  0
VERTEX
  8
0
 10
1.48503
 20
4.73063
 30
0.0
 40
0.0270531
 41
0.0270531
  0
VERTEX
  8
0
 10
1.49929
 20
4.65728
 30
0.0
 40
0.0270531
 41
0.0270531
  0
VERTEX
  8
0
 10
1.50119
 20
4.60206
 30
0.0
 40
0.0270531
 41
0.0270531
  0
VERTEX
  8
0
 10
1.49963
 20
4.58382
 30
0.0
 40
0.0270531
 41
0.0270531
  0
VERTEX
  8
0
 10
1.49864
 20
4.56961
 30
0.0
 40
0.0270531
 41
0.0270531
  0
VERTEX
  8
0
 10
1.49013
 20
4.52729
 30
0.0
 40
0.0270531
 41
0.0270531
  0
VERTEX
  8
0
 10
1.46935
 20
4.47168
 30
0.0
 40
0.0270531
 41
0.0270531
  0
VERTEX
  8
0
 10
1.4375
 20
4.42079
 30
0.0
 40
0.0270531
 41
0.0270531
  0
VERTEX
  8
0
 10
1.40663
 20
4.38753
 30
0.0
 40
0.0270531
 41
0.0270531
  0
VERTEX
  8
0
 10
1.39481
 20
4.37842
 30
0.0
 40
0.0270531
 41
0.0270531
  0
VERTEX
  8
0
 10
1.38536
 20
4.37131
 30
0.0
 40
0.0270531
 41
0.0270531
  0
VERTEX
  8
0
 10
1.33339
 20
4.34337
 30
0.0
 40
0.0270531
 41
0.0270531
  0
VERTEX
  8
0
 10
1.27219
 20
4.32482
 30
0.0
 40
0.0270531
 41
0.0270531
  0
VERTEX
  8
0
 10
1.25825
 20
4.32238
 30
0.0
 40
0.0270531
 41
0.0270531
  0
VERTEX
  8
0
 10
1.2321
 20
4.3189
 30
0.0
 40
0.0270531
 41
0.0270531
  0
VERTEX
  8
0
 10
1.10064
 20
4.31304
 30
0.0
 40
0.0270531
 41
0.0270531
  0
VERTEX
  8
0
 10
0.968913
 20
4.3131
 30
0.0
 40
0.0270531
 41
0.0270531
  0
VERTEX
  8
0
 10
0.9426
 20
4.31256
 30
0.0
 40
0.0270531
 41
0.0270531
  0
VERTEX
  8
0
 10
0.891601
 20
4.31256
 30
0.0
 40
0.0270531
 41
0.0270531
  0
VERTEX
  8
0
 10
0.755643
 20
4.31136
 30
0.0
 40
0.0270531
 41
0.0270531
  0
VERTEX
  8
0
 10
0.738661
 20
4.31099
 30
0.0
 40
0.0270531
 41
0.0270531
  0
VERTEX
  8
0
 10
0.738661
 20
4.93901
 30
0.0
 40
0.0270531
 41
0.0270531
  0
SEQEND
 8
0
  0
POLYLINE
  8
0
 62
     0
 66
     1
 10
0
 20
0
 30
0.0
 40
1.94782
 41
1.94782
  0
VERTEX
  8
0
 10
2.12201
 20
4.62853
 30
0.0
 40
0.0270531
 41
0.0270531
  0
VERTEX
  8
0
 10
1.60021
 20
4.62853
 30
0.0
 40
0.0270531
 41
0.0270531
  0
SEQEND
 8
0
  0
POLYLINE
  8
0
 62
     0
 66
     1
 10
0
 20
0
 30
0.0
 70
     1
 40
0
 41
0
  0
VERTEX
  8
0
 10
2.19396
 20
4.70882
 30
0.0
 40
0
 41
0
  0
VERTEX
  8
0
 10
2.21701
 20
4.70882
 30
0.0
 40
0
 41
0
  0
VERTEX
  8
0
 10
2.26074
 20
4.64393
 30
0.0
 40
0
 41
0
  0
VERTEX
  8
0
 10
2.30419
 20
4.70882
 30
0.0
 40
0
 41
0
  0
VERTEX
  8
0
 10
2.3271
 20
4.70882
 30
0.0
 40
0
 41
0
  0
VERTEX
  8
0
 10
2.27126
 20
4.62619
 30
0.0
 40
0
 41
0
  0
VERTEX
  8
0
 10
2.27126
 20
4.551
 30
0.0
 40
0
 41
0
  0
VERTEX
  8
0
 10
2.24983
 20
4.551
 30
0.0
 40
0
 41
0
  0
VERTEX
  8
0
 10
2.24983
 20
4.62619
 30
0.0
 40
0
 41
0
  0
VERTEX
  8
0
 10
2.19396
 20
4.70882
 30
0.0
 40
0
 41
0
  0
SEQEND
 8
0
  0
POLYLINE
  8
0
 62
     172
 66
     1
 10
0
 20
0
 30
0.0
 70
     1
 40
1.94782
 41
1.94782
  0
VERTEX
  8
0
 10
1.60579
 20
4.62522
 30
0.0
 40
0.0270531
 41
0.0270531
  0
VERTEX
  8
0
 10
1.60579
 20
4.62001
 30
0.0
 40
0.0270531
 41
0.0270531
  0
VERTEX
  8
0
 10
1.60178
 20
4.60433
 30
0.0
 40
0.0270531
 41
0.0270531
  0
VERTEX
  8
0
 10
1.59136
 20
4.58936
 30
0.0
 40
0.0270531
 41
0.0270531
  0
VERTEX
  8
0
 10
1.57656
 20
4.5804
 30
0.0
 40
0.0270531
 41
0.0270531
  0
VERTEX
  8
0
 10
1.55963
 20
4.57736
 30
0.0
 40
0.0270531
 41
0.0270531
  0
VERTEX
  8
0
 10
1.54269
 20
4.5804
 30
0.0
 40
0.0270531
 41
0.0270531
  0
VERTEX
  8
0
 10
1.52789
 20
4.58936
 30
0.0
 40
0.0270531
 41
0.0270531
  0
VERTEX
  8
0
 10
1.51747
 20
4.60433
 30
0.0
 40
0.0270531
 41
0.0270531
  0
VERTEX
  8
0
 10
1.51351
 20
4.62001
 30
0.0
 40
0.0270531
 41
0.0270531
  0
VERTEX
  8
0
 10
1.51351
 20
4.62522
 30
0.0
 40
0.0270531
 41
0.0270531
  0
VERTEX
  8
0
 10
1.51351
 20
4.63049
 30
0.0
 40
0.0270531
 41
0.0270531
  0
VERTEX
  8
0
 10
1.51747
 20
4.64615
 30
0.0
 40
0.0270531
 41
0.0270531
  0
VERTEX
  8
0
 10
1.52789
 20
4.66114
 30
0.0
 40
0.0270531
 41
0.0270531
  0
VERTEX
  8
0
 10
1.54269
 20
4.67008
 30
0.0
 40
0.0270531
 41
0.0270531
  0
VERTEX
  8
0
 10
1.55963
 20
4.67307
 30
0.0
 40
0.0270531
 41
0.0270531
  0
VERTEX
  8
0
 10
1.57656
 20
4.67008
 30
0.0
 40
0.0270531
 41
0.0270531
  0
VERTEX
  8
0
 10
1.59136
 20
4.66114
 30
0.0
 40
0.0270531
 41
0.0270531
  0
VERTEX
  8
0
 10
1.60178
 20
4.64615
 30
0.0
 40
0.0270531
 41
0.0270531
  0
VERTEX
  8
0
 10
1.60579
 20
4.63049
 30
0.0
 40
0.0270531
 41
0.0270531
  0
VERTEX
  8
0
 10
1.60579
 20
4.62522
 30
0.0
 40
0.0270531
 41
0.0270531
  0
SEQEND
 8
0
  0
POLYLINE
  8
0
 62
     0
 66
     1
 10
0
 20
0
 30
0.0
 70
     1
 40
0
 41
0
  0
VERTEX
  8
0
 10
0.0534397
 20
4.43799
 30
0.0
 40
0
 41
0
  0
VERTEX
  8
0
 10
0.0534397
 20
4.38015
 30
0.0
 40
0
 41
0
  0
VERTEX
  8
0
 10
0.0876736
 20
4.38015
 30
0.0
 40
0
 41
0
  0
VERTEX
  8
0
 10
0.0940212
 20
4.38015
 30
0.0
 40
0
 41
0
  0
VERTEX
  8
0
 10
0.111762
 20
4.38612
 30
0.0
 40
0
 41
0
  0
VERTEX
  8
0
 10
0.113173
 20
4.38726
 30
0.0
 40
0
 41
0
  0
VERTEX
  8
0
 10
0.114529
 20
4.38846
 30
0.0
 40
0
 41
0
  0
VERTEX
  8
0
 10
0.121473
 20
4.40397
 30
0.0
 40
0
 41
0
  0
VERTEX
  8
0
 10
0.121473
 20
4.40913
 30
0.0
 40
0
 41
0
  0
VERTEX
  8
0
 10
0.121473
 20
4.41461
 30
0.0
 40
0
 41
0
  0
VERTEX
  8
0
 10
0.114529
 20
4.42974
 30
0.0
 40
0
 41
0
  0
VERTEX
  8
0
 10
0.113173
 20
4.43088
 30
0.0
 40
0
 41
0
  0
VERTEX
  8
0
 10
0.111762
 20
4.43207
 30
0.0
 40
0
 41
0
  0
VERTEX
  8
0
 10
0.0936957
 20
4.43799
 30
0.0
 40
0
 41
0
  0
VERTEX
  8
0
 10
0.0876736
 20
4.43799
 30
0.0
 40
0
 41
0
  0
VERTEX
  8
0
 10
0.0534397
 20
4.43799
 30
0.0
 40
0
 41
0
  0
SEQEND
 8
0
  0
POLYLINE
  8
0
 62
     0
 66
     1
 10
0
 20
0
 30
0.0
 70
     1
 40
0
 41
0
  0
VERTEX
  8
0
 10
0.0534397
 20
4.50288
 30
0.0
 40
0
 41
0
  0
VERTEX
  8
0
 10
0.0534397
 20
4.45529
 30
0.0
 40
0
 41
0
  0
VERTEX
  8
0
 10
0.0850151
 20
4.45529
 30
0.0
 40
0
 41
0
  0
VERTEX
  8
0
 10
0.0908203
 20
4.45529
 30
0.0
 40
0
 41
0
  0
VERTEX
  8
0
 10
0.106988
 20
4.46018
 30
0.0
 40
0
 41
0
  0
VERTEX
  8
0
 10
0.10829
 20
4.4611
 30
0.0
 40
0
 41
0
  0
VERTEX
  8
0
 10
0.109538
 20
4.46213
 30
0.0
 40
0
 41
0
  0
VERTEX
  8
0
 10
0.115994
 20
4.47488
 30
0.0
 40
0
 41
0
  0
VERTEX
  8
0
 10
0.115994
 20
4.47911
 30
0.0
 40
0
 41
0
  0
VERTEX
  8
0
 10
0.115994
 20
4.48361
 30
0.0
 40
0
 41
0
  0
VERTEX
  8
0
 10
0.109538
 20
4.49599
 30
0.0
 40
0
 41
0
  0
VERTEX
  8
0
 10
0.10829
 20
4.49696
 30
0.0
 40
0
 41
0
  0
VERTEX
  8
0
 10
0.106988
 20
4.49799
 30
0.0
 40
0
 41
0
  0
VERTEX
  8
0
 10
0.0904949
 20
4.50288
 30
0.0
 40
0
 41
0
  0
VERTEX
  8
0
 10
0.0850151
 20
4.50288
 30
0.0
 40
0
 41
0
  0
VERTEX
  8
0
 10
0.0534397
 20
4.50288
 30
0.0
 40
0
 41
0
  0
SEQEND
 8
0
  0
POLYLINE
  8
0
 62
     0
 66
     1
 10
0
 20
0
 30
0.0
 70
     1
 40
0
 41
0
  0
VERTEX
  8
0
 10
0.0321181
 20
4.5204
 30
0.0
 40
0
 41
0
  0
VERTEX
  8
0
 10
0.0866428
 20
4.5204
 30
0.0
 40
0
 41
0
  0
VERTEX
  8
0
 10
0.0960286
 20
4.5204
 30
0.0
 40
0
 41
0
  0
VERTEX
  8
0
 10
0.122016
 20
4.51199
 30
0.0
 40
0
 41
0
  0
VERTEX
  8
0
 10
0.12424
 20
4.51025
 30
0.0
 40
0
 41
0
  0
VERTEX
  8
0
 10
0.126411
 20
4.50857
 30
0.0
 40
0
 41
0
  0
VERTEX
  8
0
 10
0.137478
 20
4.48822
 30
0.0
 40
0
 41
0
  0
VERTEX
  8
0
 10
0.137478
 20
4.48144
 30
0.0
 40
0
 41
0
  0
VERTEX
  8
0
 10
0.137478
 20
4.47569
 30
0.0
 40
0
 41
0
  0
VERTEX
  8
0
 10
0.131782
 20
4.45985
 30
0.0
 40
0
 41
0
  0
VERTEX
  8
0
 10
0.130697
 20
4.45839
 30
0.0
 40
0
 41
0
  0
VERTEX
  8
0
 10
0.129557
 20
4.45697
 30
0.0
 40
0
 41
0
  0
VERTEX
  8
0
 10
0.11301
 20
4.44808
 30
0.0
 40
0
 41
0
  0
VERTEX
  8
0
 10
0.11084
 20
4.44769
 30
0.0
 40
0
 41
0
  0
VERTEX
  8
0
 10
0.113444
 20
4.44715
 30
0.0
 40
0
 41
0
  0
VERTEX
  8
0
 10
0.133789
 20
4.43533
 30
0.0
 40
0
 41
0
  0
VERTEX
  8
0
 10
0.135254
 20
4.43349
 30
0.0
 40
0
 41
0
  0
VERTEX
  8
0
 10
0.136719
 20
4.43175
 30
0.0
 40
0
 41
0
  0
VERTEX
  8
0
 10
0.143989
 20
4.41308
 30
0.0
 40
0
 41
0
  0
VERTEX
  8
0
 10
0.143989
 20
4.40685
 30
0.0
 40
0
 41
0
  0
VERTEX
  8
0
 10
0.143989
 20
4.39871
 30
0.0
 40
0
 41
0
  0
VERTEX
  8
0
 10
0.132053
 20
4.37608
 30
0.0
 40
0
 41
0
  0
VERTEX
  8
0
 10
0.129666
 20
4.37414
 30
0.0
 40
0
 41
0
  0
VERTEX
  8
0
 10
0.127224
 20
4.37224
 30
0.0
 40
0
 41
0
  0
VERTEX
  8
0
 10
0.0983615
 20
4.36268
 30
0.0
 40
0
 41
0
  0
VERTEX
  8
0
 10
0.0887587
 20
4.36268
 30
0.0
 40
0
 41
0
  0
VERTEX
  8
0
 10
0.0321181
 20
4.36268
 30
0.0
 40
0
 41
0
  0
VERTEX
  8
0
 10
0.0321181
 20
4.5204
 30
0.0
 40
0
 41
0
  0
SEQEND
 8
0
  0
POLYLINE
  8
0
 62
     0
 66
     1
 10
0
 20
0
 30
0.0
 40
1.94782
 41
1.94782
  0
VERTEX
  8
0
 10
0.735026
 20
6.04943
 30
0.0
 40
0.0270531
 41
0.0270531
  0
VERTEX
  8
0
 10
0.213271
 20
6.04943
 30
0.0
 40
0.0270531
 41
0.0270531
  0
SEQEND
 8
0
  0
POLYLINE
  8
0
 62
     0
 66
     1
 10
0
 20
0
 30
0.0
 40
1.94782
 41
1.94782
  0
VERTEX
  8
0
 10
0.735026
 20
5.69194
 30
0.0
 40
0.0270531
 41
0.0270531
  0
VERTEX
  8
0
 10
0.213271
 20
5.69194
 30
0.0
 40
0.0270531
 41
0.0270531
  0
SEQEND
 8
0
  0
POLYLINE
  8
0
 62
     0
 66
     1
 10
0
 20
0
 30
0.0
 40
1.94782
 41
1.94782
  0
VERTEX
  8
0
 10
2.01764
 20
5.86675
 30
0.0
 40
0.0270531
 41
0.0270531
  0
VERTEX
  8
0
 10
1.49588
 20
5.86675
 30
0.0
 40
0.0270531
 41
0.0270531
  0
SEQEND
 8
0
  0
POLYLINE
  8
0
 62
     172
 66
     1
 10
0
 20
0
 30
0.0
 70
     1
 40
1.94782
 41
1.94782
  0
VERTEX
  8
0
 10
0.737414
 20
6.18067
 30
0.0
 40
0.0270531
 41
0.0270531
  0
VERTEX
  8
0
 10
0.780817
 20
6.18033
 30
0.0
 40
0.0270531
 41
0.0270531
  0
VERTEX
  8
0
 10
1.21517
 20
6.17643
 30
0.0
 40
0.0270531
 41
0.0270531
  0
VERTEX
  8
0
 10
1.25857
 20
6.17356
 30
0.0
 40
0.0270531
 41
0.0270531
  0
VERTEX
  8
0
 10
1.27083
 20
6.1716
 30
0.0
 40
0.0270531
 41
0.0270531
  0
VERTEX
  8
0
 10
1.30735
 20
6.16271
 30
0.0
 40
0.0270531
 41
0.0270531
  0
VERTEX
  8
0
 10
1.34522
 20
6.14757
 30
0.0
 40
0.0270531
 41
0.0270531
  0
VERTEX
  8
0
 10
1.37733
 20
6.1269
 30
0.0
 40
0.0270531
 41
0.0270531
  0
VERTEX
  8
0
 10
1.40142
 20
6.10667
 30
0.0
 40
0.0270531
 41
0.0270531
  0
VERTEX
  8
0
 10
1.40907
 20
6.0995
 30
0.0
 40
0.0270531
 41
0.0270531
  0
VERTEX
  8
0
 10
1.42219
 20
6.08669
 30
0.0
 40
0.0270531
 41
0.0270531
  0
VERTEX
  8
0
 10
1.45449
 20
6.04075
 30
0.0
 40
0.0270531
 41
0.0270531
  0
VERTEX
  8
0
 10
1.48378
 20
5.97228
 30
0.0
 40
0.0270531
 41
0.0270531
  0
VERTEX
  8
0
 10
1.49804
 20
5.89893
 30
0.0
 40
0.0270531
 41
0.0270531
  0
VERTEX
  8
0
 10
1.49994
 20
5.84369
 30
0.0
 40
0.0270531
 41
0.0270531
  0
VERTEX
  8
0
 10
1.49838
 20
5.82547
 30
0.0
 40
0.0270531
 41
0.0270531
  0
VERTEX
  8
0
 10
1.4974
 20
5.81125
 30
0.0
 40
0.0270531
 41
0.0270531
  0
VERTEX
  8
0
 10
1.48887
 20
5.76893
 30
0.0
 40
0.0270531
 41
0.0270531
  0
VERTEX
  8
0
 10
1.4681
 20
5.71332
 30
0.0
 40
0.0270531
 41
0.0270531
  0
VERTEX
  8
0
 10
1.43625
 20
5.66249
 30
0.0
 40
0.0270531
 41
0.0270531
  0
VERTEX
  8
0
 10
1.40539
 20
5.62918
 30
0.0
 40
0.0270531
 41
0.0270531
  0
VERTEX
  8
0
 10
1.39356
 20
5.62007
 30
0.0
 40
0.0270531
 41
0.0270531
  0
VERTEX
  8
0
 10
1.38412
 20
5.61296
 30
0.0
 40
0.0270531
 41
0.0270531
  0
VERTEX
  8
0
 10
1.33214
 20
5.58507
 30
0.0
 40
0.0270531
 41
0.0270531
  0
VERTEX
  8
0
 10
1.27094
 20
5.56651
 30
0.0
 40
0.0270531
 41
0.0270531
  0
VERTEX
  8
0
 10
1.257
 20
5.56401
 30
0.0
 40
0.0270531
 41
0.0270531
  0
VERTEX
  8
0
 10
1.23085
 20
5.5606
 30
0.0
 40
0.0270531
 41
0.0270531
  0
VERTEX
  8
0
 10
1.09939
 20
5.55469
 30
0.0
 40
0.0270531
 41
0.0270531
  0
VERTEX
  8
0
 10
0.967665
 20
5.55474
 30
0.0
 40
0.0270531
 41
0.0270531
  0
VERTEX
  8
0
 10
0.941351
 20
5.55425
 30
0.0
 40
0.0270531
 41
0.0270531
  0
VERTEX
  8
0
 10
0.890354
 20
5.55425
 30
0.0
 40
0.0270531
 41
0.0270531
  0
VERTEX
  8
0
 10
0.754394
 20
5.55306
 30
0.0
 40
0.0270531
 41
0.0270531
  0
VERTEX
  8
0
 10
0.737414
 20
5.55268
 30
0.0
 40
0.0270531
 41
0.0270531
  0
VERTEX
  8
0
 10
0.737414
 20
6.18067
 30
0.0
 40
0.0270531
 41
0.0270531
  0
SEQEND
 8
0
  0
POLYLINE
  8
0
 62
     0
 66
     1
 10
0
 20
0
 30
0.0
 70
     1
 40
0
 41
0
  0
VERTEX
  8
0
 10
0.0722657
 20
6.10726
 30
0.0
 40
0
 41
0
  0
VERTEX
  8
0
 10
0.0433485
 20
6.02875
 30
0.0
 40
0
 41
0
  0
VERTEX
  8
0
 10
0.101346
 20
6.02875
 30
0.0
 40
0
 41
0
  0
VERTEX
  8
0
 10
0.0722657
 20
6.10726
 30
0.0
 40
0
 41
0
  0
SEQEND
 8
0
  0
POLYLINE
  8
0
 62
     0
 66
     1
 10
0
 20
0
 30
0.0
 70
     1
 40
0
 41
0
  0
VERTEX
  8
0
 10
0.0602214
 20
6.12831
 30
0.0
 40
0
 41
0
  0
VERTEX
  8
0
 10
0.0844185
 20
6.12831
 30
0.0
 40
0
 41
0
  0
VERTEX
  8
0
 10
0.144586
 20
5.97054
 30
0.0
 40
0
 41
0
  0
VERTEX
  8
0
 10
0.122396
 20
5.97054
 30
0.0
 40
0
 41
0
  0
VERTEX
  8
0
 10
0.108019
 20
6.01101
 30
0.0
 40
0
 41
0
  0
VERTEX
  8
0
 10
0.0368924
 20
6.01101
 30
0.0
 40
0
 41
0
  0
VERTEX
  8
0
 10
0.0225151
 20
5.97054
 30
0.0
 40
0
 41
0
  0
VERTEX
  8
0
 10
0
 20
5.97054
 30
0.0
 40
0
 41
0
  0
VERTEX
  8
0
 10
0.0602214
 20
6.12831
 30
0.0
 40
0
 41
0
  0
SEQEND
 8
0
  0
POLYLINE
  8
0
 62
     0
 66
     1
 10
0
 20
0
 30
0.0
 70
     1
 40
0
 41
0
  0
VERTEX
  8
0
 10
0.0457357
 20
5.68837
 30
0.0
 40
0
 41
0
  0
VERTEX
  8
0
 10
0.0457357
 20
5.63058
 30
0.0
 40
0
 41
0
  0
VERTEX
  8
0
 10
0.0799696
 20
5.63058
 30
0.0
 40
0
 41
0
  0
VERTEX
  8
0
 10
0.0863172
 20
5.63058
 30
0.0
 40
0
 41
0
  0
VERTEX
  8
0
 10
0.104004
 20
5.6365
 30
0.0
 40
0
 41
0
  0
VERTEX
  8
0
 10
0.105414
 20
5.63764
 30
0.0
 40
0
 41
0
  0
VERTEX
  8
0
 10
0.106771
 20
5.63889
 30
0.0
 40
0
 41
0
  0
VERTEX
  8
0
 10
0.11377
 20
5.65435
 30
0.0
 40
0
 41
0
  0
VERTEX
  8
0
 10
0.11377
 20
5.6595
 30
0.0
 40
0
 41
0
  0
VERTEX
  8
0
 10
0.11377
 20
5.66499
 30
0.0
 40
0
 41
0
  0
VERTEX
  8
0
 10
0.106771
 20
5.68018
 30
0.0
 40
0
 41
0
  0
VERTEX
  8
0
 10
0.105414
 20
5.68132
 30
0.0
 40
0
 41
0
  0
VERTEX
  8
0
 10
0.104004
 20
5.68251
 30
0.0
 40
0
 41
0
  0
VERTEX
  8
0
 10
0.0859375
 20
5.68837
 30
0.0
 40
0
 41
0
  0
VERTEX
  8
0
 10
0.0799696
 20
5.68837
 30
0.0
 40
0
 41
0
  0
VERTEX
  8
0
 10
0.0457357
 20
5.68837
 30
0.0
 40
0
 41
0
  0
SEQEND
 8
0
  0
POLYLINE
  8
0
 62
     0
 66
     1
 10
0
 20
0
 30
0.0
 70
     1
 40
0
 41
0
  0
VERTEX
  8
0
 10
0.0457357
 20
5.75325
 30
0.0
 40
0
 41
0
  0
VERTEX
  8
0
 10
0.0457357
 20
5.70574
 30
0.0
 40
0
 41
0
  0
VERTEX
  8
0
 10
0.0773113
 20
5.70574
 30
0.0
 40
0
 41
0
  0
VERTEX
  8
0
 10
0.0831164
 20
5.70574
 30
0.0
 40
0
 41
0
  0
VERTEX
  8
0
 10
0.0992839
 20
5.71056
 30
0.0
 40
0
 41
0
  0
VERTEX
  8
0
 10
0.100586
 20
5.71153
 30
0.0
 40
0
 41
0
  0
VERTEX
  8
0
 10
0.101834
 20
5.71251
 30
0.0
 40
0
 41
0
  0
VERTEX
  8
0
 10
0.10829
 20
5.72526
 30
0.0
 40
0
 41
0
  0
VERTEX
  8
0
 10
0.10829
 20
5.72949
 30
0.0
 40
0
 41
0
  0
VERTEX
  8
0
 10
0.10829
 20
5.734
 30
0.0
 40
0
 41
0
  0
VERTEX
  8
0
 10
0.101834
 20
5.74636
 30
0.0
 40
0
 41
0
  0
VERTEX
  8
0
 10
0.100586
 20
5.74735
 30
0.0
 40
0
 41
0
  0
VERTEX
  8
0
 10
0.0992839
 20
5.74837
 30
0.0
 40
0
 41
0
  0
VERTEX
  8
0
 10
0.0827908
 20
5.75325
 30
0.0
 40
0
 41
0
  0
VERTEX
  8
0
 10
0.0773113
 20
5.75325
 30
0.0
 40
0
 41
0
  0
VERTEX
  8
0
 10
0.0457357
 20
5.75325
 30
0.0
 40
0
 41
0
  0
SEQEND
 8
0
  0
POLYLINE
  8
0
 62
     0
 66
     1
 10
0
 20
0
 30
0.0
 70
     1
 40
0
 41
0
  0
VERTEX
  8
0
 10
0.0243599
 20
5.77083
 30
0.0
 40
0
 41
0
  0
VERTEX
  8
0
 10
0.0788846
 20
5.77083
 30
0.0
 40
0
 41
0
  0
VERTEX
  8
0
 10
0.0882704
 20
5.77083
 30
0.0
 40
0
 41
0
  0
VERTEX
  8
0
 10
0.114312
 20
5.76237
 30
0.0
 40
0
 41
0
  0
VERTEX
  8
0
 10
0.116537
 20
5.76069
 30
0.0
 40
0
 41
0
  0
VERTEX
  8
0
 10
0.118707
 20
5.759
 30
0.0
 40
0
 41
0
  0
VERTEX
  8
0
 10
0.12972
 20
5.73867
 30
0.0
 40
0
 41
0
  0
VERTEX
  8
0
 10
0.12972
 20
5.73182
 30
0.0
 40
0
 41
0
  0
VERTEX
  8
0
 10
0.12972
 20
5.72607
 30
0.0
 40
0
 41
0
  0
VERTEX
  8
0
 10
0.124078
 20
5.71024
 30
0.0
 40
0
 41
0
  0
VERTEX
  8
0
 10
0.122993
 20
5.70876
 30
0.0
 40
0
 41
0
  0
VERTEX
  8
0
 10
0.121853
 20
5.70736
 30
0.0
 40
0
 41
0
  0
VERTEX
  8
0
 10
0.105252
 20
5.69846
 30
0.0
 40
0
 41
0
  0
VERTEX
  8
0
 10
0.103082
 20
5.69808
 30
0.0
 40
0
 41
0
  0
VERTEX
  8
0
 10
0.105686
 20
5.69754
 30
0.0
 40
0
 41
0
  0
VERTEX
  8
0
 10
0.126031
 20
5.68576
 30
0.0
 40
0
 41
0
  0
VERTEX
  8
0
 10
0.127496
 20
5.68392
 30
0.0
 40
0
 41
0
  0
VERTEX
  8
0
 10
0.128961
 20
5.68218
 30
0.0
 40
0
 41
0
  0
VERTEX
  8
0
 10
0.136285
 20
5.66347
 30
0.0
 40
0
 41
0
  0
VERTEX
  8
0
 10
0.136285
 20
5.65722
 30
0.0
 40
0
 41
0
  0
VERTEX
  8
0
 10
0.136285
 20
5.64908
 30
0.0
 40
0
 41
0
  0
VERTEX
  8
0
 10
0.124295
 20
5.62651
 30
0.0
 40
0
 41
0
  0
VERTEX
  8
0
 10
0.121908
 20
5.62457
 30
0.0
 40
0
 41
0
  0
VERTEX
  8
0
 10
0.11952
 20
5.62267
 30
0.0
 40
0
 41
0
  0
VERTEX
  8
0
 10
0.0906033
 20
5.61301
 30
0.0
 40
0
 41
0
  0
VERTEX
  8
0
 10
0.0810004
 20
5.61301
 30
0.0
 40
0
 41
0
  0
VERTEX
  8
0
 10
0.0243599
 20
5.61301
 30
0.0
 40
0
 41
0
  0
VERTEX
  8
0
 10
0.0243599
 20
5.77083
 30
0.0
 40
0
 41
0
  0
SEQEND
 8
0
  0
POLYLINE
  8
0
 62
     0
 66
     1
 10
0
 20
0
 30
0.0
 70
     1
 40
0
 41
0
  0
VERTEX
  8
0
 10
2.08974
 20
5.94715
 30
0.0
 40
0
 41
0
  0
VERTEX
  8
0
 10
2.11262
 20
5.94715
 30
0.0
 40
0
 41
0
  0
VERTEX
  8
0
 10
2.15636
 20
5.88226
 30
0.0
 40
0
 41
0
  0
VERTEX
  8
0
 10
2.19982
 20
5.94715
 30
0.0
 40
0
 41
0
  0
VERTEX
  8
0
 10
2.22271
 20
5.94715
 30
0.0
 40
0
 41
0
  0
VERTEX
  8
0
 10
2.16689
 20
5.86447
 30
0.0
 40
0
 41
0
  0
VERTEX
  8
0
 10
2.16689
 20
5.78939
 30
0.0
 40
0
 41
0
  0
VERTEX
  8
0
 10
2.14546
 20
5.78939
 30
0.0
 40
0
 41
0
  0
VERTEX
  8
0
 10
2.14546
 20
5.86447
 30
0.0
 40
0
 41
0
  0
VERTEX
  8
0
 10
2.08974
 20
5.94715
 30
0.0
 40
0
 41
0
  0
SEQEND
 8
0
  0
POLYLINE
  8
0
 62
     0
 66
     1
 10
0
 20
0
 30
0.0
 40
1.94782
 41
1.94782
  0
VERTEX
  8
0
 10
0.800944
 20
3.73415
 30
0.0
 40
0.0270531
 41
0.0270531
  0
VERTEX
  8
0
 10
0.279189
 20
3.73415
 30
0.0
 40
0.0270531
 41
0.0270531
  0
SEQEND
 8
0
  0
POLYLINE
  8
0
 62
     0
 66
     1
 10
0
 20
0
 30
0.0
 40
1.94782
 41
1.94782
  0
VERTEX
  8
0
 10
0.800944
 20
3.37663
 30
0.0
 40
0.0270531
 41
0.0270531
  0
VERTEX
  8
0
 10
0.279189
 20
3.37663
 30
0.0
 40
0.0270531
 41
0.0270531
  0
SEQEND
 8
0
  0
POLYLINE
  8
0
 62
     0
 66
     1
 10
0
 20
0
 30
0.0
 70
     1
 40
0
 41
0
  0
VERTEX
  8
0
 10
0.138184
 20
3.79194
 30
0.0
 40
0
 41
0
  0
VERTEX
  8
0
 10
0.109212
 20
3.71338
 30
0.0
 40
0
 41
0
  0
VERTEX
  8
0
 10
0.167264
 20
3.71338
 30
0.0
 40
0
 41
0
  0
VERTEX
  8
0
 10
0.138184
 20
3.79194
 30
0.0
 40
0
 41
0
  0
SEQEND
 8
0
  0
POLYLINE
  8
0
 62
     0
 66
     1
 10
0
 20
0
 30
0.0
 70
     1
 40
0
 41
0
  0
VERTEX
  8
0
 10
0.126139
 20
3.81299
 30
0.0
 40
0
 41
0
  0
VERTEX
  8
0
 10
0.150336
 20
3.81299
 30
0.0
 40
0
 41
0
  0
VERTEX
  8
0
 10
0.210449
 20
3.65517
 30
0.0
 40
0
 41
0
  0
VERTEX
  8
0
 10
0.18826
 20
3.65517
 30
0.0
 40
0
 41
0
  0
VERTEX
  8
0
 10
0.173882
 20
3.69569
 30
0.0
 40
0
 41
0
  0
VERTEX
  8
0
 10
0.102756
 20
3.69569
 30
0.0
 40
0
 41
0
  0
VERTEX
  8
0
 10
0.0884332
 20
3.65517
 30
0.0
 40
0
 41
0
  0
VERTEX
  8
0
 10
0.0659179
 20
3.65517
 30
0.0
 40
0
 41
0
  0
VERTEX
  8
0
 10
0.126139
 20
3.81299
 30
0.0
 40
0
 41
0
  0
SEQEND
 8
0
  0
POLYLINE
  8
0
 62
     0
 66
     1
 10
0
 20
0
 30
0.0
 40
1.94782
 41
1.94782
  0
VERTEX
  8
0
 10
1.97803
 20
3.54932
 30
0.0
 40
0.0270531
 41
0.0270531
  0
VERTEX
  8
0
 10
1.45628
 20
3.54932
 30
0.0
 40
0.0270531
 41
0.0270531
  0
SEQEND
 8
0
  0
POLYLINE
  8
0
 62
     0
 66
     1
 10
0
 20
0
 30
0.0
 70
     1
 40
0
 41
0
  0
VERTEX
  8
0
 10
2.05003
 20
3.62978
 30
0.0
 40
0
 41
0
  0
VERTEX
  8
0
 10
2.07292
 20
3.62978
 30
0.0
 40
0
 41
0
  0
VERTEX
  8
0
 10
2.11669
 20
3.56489
 30
0.0
 40
0
 41
0
  0
VERTEX
  8
0
 10
2.1601
 20
3.62978
 30
0.0
 40
0
 41
0
  0
VERTEX
  8
0
 10
2.18317
 20
3.62978
 30
0.0
 40
0
 41
0
  0
VERTEX
  8
0
 10
2.12733
 20
3.54704
 30
0.0
 40
0
 41
0
  0
VERTEX
  8
0
 10
2.12733
 20
3.47194
 30
0.0
 40
0
 41
0
  0
VERTEX
  8
0
 10
2.10585
 20
3.47194
 30
0.0
 40
0
 41
0
  0
VERTEX
  8
0
 10
2.10585
 20
3.54704
 30
0.0
 40
0
 41
0
  0
VERTEX
  8
0
 10
2.05003
 20
3.62978
 30
0.0
 40
0
 41
0
  0
SEQEND
 8
0
  0
POLYLINE
  8
0
 62
     172
 66
     1
 10
0
 20
0
 30
0.0
 70
     1
 40
1.95
 41
1.95
  0
VERTEX
  8
0
 10
0.734267
 20
3.89328
 30
0.0
 40
0.0270833
 41
0.0270833
  0
VERTEX
  8
0
 10
0.747179
 20
3.87082
 30
0.0
 40
0.0270833
 41
0.0270833
  0
VERTEX
  8
0
 10
0.780817
 20
3.8004
 30
0.0
 40
0.0270833
 41
0.0270833
  0
VERTEX
  8
0
 10
0.809679
 20
3.7156
 30
0.0
 40
0.0270833
 41
0.0270833
  0
VERTEX
  8
0
 10
0.824328
 20
3.63504
 30
0.0
 40
0.0270833
 41
0.0270833
  0
VERTEX
  8
0
 10
0.82845
 20
3.57493
 30
0.0
 40
0.0270833
 41
0.0270833
  0
VERTEX
  8
0
 10
0.82845
 20
3.55485
 30
0.0
 40
0.0270833
 41
0.0270833
  0
VERTEX
  8
0
 10
0.82845
 20
3.51025
 30
0.0
 40
0.0270833
 41
0.0270833
  0
VERTEX
  8
0
 10
0.804363
 20
3.37642
 30
0.0
 40
0.0270833
 41
0.0270833
  0
VERTEX
  8
0
 10
0.749567
 20
3.24278
 30
0.0
 40
0.0270833
 41
0.0270833
  0
VERTEX
  8
0
 10
0.734267
 20
3.21619
 30
0.0
 40
0.0270833
 41
0.0270833
  0
VERTEX
  8
0
 10
0.757813
 20
3.21619
 30
0.0
 40
0.0270833
 41
0.0270833
  0
VERTEX
  8
0
 10
0.82845
 20
3.22151
 30
0.0
 40
0.0270833
 41
0.0270833
  0
VERTEX
  8
0
 10
0.930339
 20
3.23731
 30
0.0
 40
0.0270833
 41
0.0270833
  0
VERTEX
  8
0
 10
1.0357
 20
3.26357
 30
0.0
 40
0.0270833
 41
0.0270833
  0
VERTEX
  8
0
 10
1.14041
 20
3.30007
 30
0.0
 40
0.0270833
 41
0.0270833
  0
VERTEX
  8
0
 10
1.24013
 20
3.3469
 30
0.0
 40
0.0270833
 41
0.0270833
  0
VERTEX
  8
0
 10
1.33084
 20
3.40386
 30
0.0
 40
0.0270833
 41
0.0270833
  0
VERTEX
  8
0
 10
1.40826
 20
3.47086
 30
0.0
 40
0.0270833
 41
0.0270833
  0
VERTEX
  8
0
 10
1.45568
 20
3.52713
 30
0.0
 40
0.0270833
 41
0.0270833
  0
VERTEX
  8
0
 10
1.46826
 20
3.54779
 30
0.0
 40
0.0270833
 41
0.0270833
  0
VERTEX
  8
0
 10
1.45524
 20
3.56749
 30
0.0
 40
0.0270833
 41
0.0270833
  0
VERTEX
  8
0
 10
1.40771
 20
3.62099
 30
0.0
 40
0.0270833
 41
0.0270833
  0
VERTEX
  8
0
 10
1.32975
 20
3.6875
 30
0.0
 40
0.0270833
 41
0.0270833
  0
VERTEX
  8
0
 10
1.23855
 20
3.74642
 30
0.0
 40
0.0270833
 41
0.0270833
  0
VERTEX
  8
0
 10
1.13846
 20
3.79671
 30
0.0
 40
0.0270833
 41
0.0270833
  0
VERTEX
  8
0
 10
1.03369
 20
3.83757
 30
0.0
 40
0.0270833
 41
0.0270833
  0
VERTEX
  8
0
 10
0.928603
 20
3.86789
 30
0.0
 40
0.0270833
 41
0.0270833
  0
VERTEX
  8
0
 10
0.827311
 20
3.88678
 30
0.0
 40
0.0270833
 41
0.0270833
  0
VERTEX
  8
0
 10
0.757488
 20
3.89328
 30
0.0
 40
0.0270833
 41
0.0270833
  0
VERTEX
  8
0
 10
0.734267
 20
3.89328
 30
0.0
 40
0.0270833
 41
0.0270833
  0
SEQEND
 8
0
  0
POLYLINE
  8
0
 62
     0
 66
     1
 10
0
 20
0
 30
0.0
 70
     1
 40
0
 41
0
  0
VERTEX
  8
0
 10
0.111599
 20
3.3731
 30
0.0
 40
0
 41
0
  0
VERTEX
  8
0
 10
0.111599
 20
3.31526
 30
0.0
 40
0
 41
0
  0
VERTEX
  8
0
 10
0.145887
 20
3.31526
 30
0.0
 40
0
 41
0
  0
VERTEX
  8
0
 10
0.152235
 20
3.31526
 30
0.0
 40
0
 41
0
  0
VERTEX
  8
0
 10
0.169922
 20
3.32118
 30
0.0
 40
0
 41
0
  0
VERTEX
  8
0
 10
0.171332
 20
3.32238
 30
0.0
 40
0
 41
0
  0
VERTEX
  8
0
 10
0.172689
 20
3.32357
 30
0.0
 40
0
 41
0
  0
VERTEX
  8
0
 10
0.179688
 20
3.33908
 30
0.0
 40
0
 41
0
  0
VERTEX
  8
0
 10
0.179688
 20
3.34424
 30
0.0
 40
0
 41
0
  0
VERTEX
  8
0
 10
0.179688
 20
3.34972
 30
0.0
 40
0
 41
0
  0
VERTEX
  8
0
 10
0.172689
 20
3.36486
 30
0.0
 40
0
 41
0
  0
VERTEX
  8
0
 10
0.171332
 20
3.366
 30
0.0
 40
0
 41
0
  0
VERTEX
  8
0
 10
0.169922
 20
3.36719
 30
0.0
 40
0
 41
0
  0
VERTEX
  8
0
 10
0.151856
 20
3.3731
 30
0.0
 40
0
 41
0
  0
VERTEX
  8
0
 10
0.145887
 20
3.3731
 30
0.0
 40
0
 41
0
  0
VERTEX
  8
0
 10
0.111599
 20
3.3731
 30
0.0
 40
0
 41
0
  0
SEQEND
 8
0
  0
POLYLINE
  8
0
 62
     0
 66
     1
 10
0
 20
0
 30
0.0
 70
     1
 40
0
 41
0
  0
VERTEX
  8
0
 10
0.111599
 20
3.43799
 30
0.0
 40
0
 41
0
  0
VERTEX
  8
0
 10
0.111599
 20
3.3904
 30
0.0
 40
0
 41
0
  0
VERTEX
  8
0
 10
0.143229
 20
3.3904
 30
0.0
 40
0
 41
0
  0
VERTEX
  8
0
 10
0.149035
 20
3.3904
 30
0.0
 40
0
 41
0
  0
VERTEX
  8
0
 10
0.165147
 20
3.39529
 30
0.0
 40
0
 41
0
  0
VERTEX
  8
0
 10
0.16645
 20
3.39621
 30
0.0
 40
0
 41
0
  0
VERTEX
  8
0
 10
0.167697
 20
3.39725
 30
0.0
 40
0
 41
0
  0
VERTEX
  8
0
 10
0.174208
 20
3.40994
 30
0.0
 40
0
 41
0
  0
VERTEX
  8
0
 10
0.174208
 20
3.41411
 30
0.0
 40
0
 41
0
  0
VERTEX
  8
0
 10
0.174208
 20
3.41863
 30
0.0
 40
0
 41
0
  0
VERTEX
  8
0
 10
0.167697
 20
3.4311
 30
0.0
 40
0
 41
0
  0
VERTEX
  8
0
 10
0.16645
 20
3.43207
 30
0.0
 40
0
 41
0
  0
VERTEX
  8
0
 10
0.165147
 20
3.43306
 30
0.0
 40
0
 41
0
  0
VERTEX
  8
0
 10
0.148708
 20
3.43799
 30
0.0
 40
0
 41
0
  0
VERTEX
  8
0
 10
0.143229
 20
3.43799
 30
0.0
 40
0
 41
0
  0
VERTEX
  8
0
 10
0.111599
 20
3.43799
 30
0.0
 40
0
 41
0
  0
SEQEND
 8
0
  0
POLYLINE
  8
0
 62
     0
 66
     1
 10
0
 20
0
 30
0.0
 70
     1
 40
0
 41
0
  0
VERTEX
  8
0
 10
0.0902778
 20
3.45551
 30
0.0
 40
0
 41
0
  0
VERTEX
  8
0
 10
0.144803
 20
3.45551
 30
0.0
 40
0
 41
0
  0
VERTEX
  8
0
 10
0.154189
 20
3.45551
 30
0.0
 40
0
 41
0
  0
VERTEX
  8
0
 10
0.180176
 20
3.4471
 30
0.0
 40
0
 41
0
  0
VERTEX
  8
0
 10
0.1824
 20
3.44536
 30
0.0
 40
0
 41
0
  0
VERTEX
  8
0
 10
0.184571
 20
3.44368
 30
0.0
 40
0
 41
0
  0
VERTEX
  8
0
 10
0.195638
 20
3.42333
 30
0.0
 40
0
 41
0
  0
VERTEX
  8
0
 10
0.195638
 20
3.4165
 30
0.0
 40
0
 41
0
  0
VERTEX
  8
0
 10
0.195638
 20
3.41075
 30
0.0
 40
0
 41
0
  0
VERTEX
  8
0
 10
0.189942
 20
3.39492
 30
0.0
 40
0
 41
0
  0
VERTEX
  8
0
 10
0.188857
 20
3.3935
 30
0.0
 40
0
 41
0
  0
VERTEX
  8
0
 10
0.187717
 20
3.39208
 30
0.0
 40
0
 41
0
  0
VERTEX
  8
0
 10
0.171169
 20
3.38314
 30
0.0
 40
0
 41
0
  0
VERTEX
  8
0
 10
0.169
 20
3.38276
 30
0.0
 40
0
 41
0
  0
VERTEX
  8
0
 10
0.171604
 20
3.38222
 30
0.0
 40
0
 41
0
  0
VERTEX
  8
0
 10
0.191949
 20
3.37044
 30
0.0
 40
0
 41
0
  0
VERTEX
  8
0
 10
0.193414
 20
3.3686
 30
0.0
 40
0
 41
0
  0
VERTEX
  8
0
 10
0.194879
 20
3.36686
 30
0.0
 40
0
 41
0
  0
VERTEX
  8
0
 10
0.202203
 20
3.34814
 30
0.0
 40
0
 41
0
  0
VERTEX
  8
0
 10
0.202203
 20
3.34185
 30
0.0
 40
0
 41
0
  0
VERTEX
  8
0
 10
0.202203
 20
3.33371
 30
0.0
 40
0
 41
0
  0
VERTEX
  8
0
 10
0.190213
 20
3.31119
 30
0.0
 40
0
 41
0
  0
VERTEX
  8
0
 10
0.187825
 20
3.30925
 30
0.0
 40
0
 41
0
  0
VERTEX
  8
0
 10
0.185385
 20
3.30735
 30
0.0
 40
0
 41
0
  0
VERTEX
  8
0
 10
0.156521
 20
3.29769
 30
0.0
 40
0
 41
0
  0
VERTEX
  8
0
 10
0.146918
 20
3.29769
 30
0.0
 40
0
 41
0
  0
VERTEX
  8
0
 10
0.0902778
 20
3.29769
 30
0.0
 40
0
 41
0
  0
VERTEX
  8
0
 10
0.0902778
 20
3.45551
 30
0.0
 40
0
 41
0
  0
SEQEND
 8
0
  0
POLYLINE
  8
0
 62
     0
 66
     1
 10
0
 20
0
 30
0.0
 40
1.94782
 41
1.94782
  0
VERTEX
  8
0
 10
0.768989
 20
2.6404
 30
0.0
 40
0.0270531
 41
0.0270531
  0
VERTEX
  8
0
 10
0.247288
 20
2.6404
 30
0.0
 40
0.0270531
 41
0.0270531
  0
SEQEND
 8
0
  0
POLYLINE
  8
0
 62
     0
 66
     1
 10
0
 20
0
 30
0.0
 40
1.94782
 41
1.94782
  0
VERTEX
  8
0
 10
0.768989
 20
2.28288
 30
0.0
 40
0.0270531
 41
0.0270531
  0
VERTEX
  8
0
 10
0.247288
 20
2.28288
 30
0.0
 40
0.0270531
 41
0.0270531
  0
SEQEND
 8
0
  0
POLYLINE
  8
0
 62
     0
 66
     1
 10
0
 20
0
 30
0.0
 70
     1
 40
0
 41
0
  0
VERTEX
  8
0
 10
0.106282
 20
2.69819
 30
0.0
 40
0
 41
0
  0
VERTEX
  8
0
 10
0.0773113
 20
2.61963
 30
0.0
 40
0
 41
0
  0
VERTEX
  8
0
 10
0.135308
 20
2.61963
 30
0.0
 40
0
 41
0
  0
VERTEX
  8
0
 10
0.106282
 20
2.69819
 30
0.0
 40
0
 41
0
  0
SEQEND
 8
0
  0
POLYLINE
  8
0
 62
     0
 66
     1
 10
0
 20
0
 30
0.0
 70
     1
 40
0
 41
0
  0
VERTEX
  8
0
 10
0.094184
 20
2.71924
 30
0.0
 40
0
 41
0
  0
VERTEX
  8
0
 10
0.118381
 20
2.71924
 30
0.0
 40
0
 41
0
  0
VERTEX
  8
0
 10
0.178549
 20
2.56142
 30
0.0
 40
0
 41
0
  0
VERTEX
  8
0
 10
0.156358
 20
2.56142
 30
0.0
 40
0
 41
0
  0
VERTEX
  8
0
 10
0.141982
 20
2.60194
 30
0.0
 40
0
 41
0
  0
VERTEX
  8
0
 10
0.070855
 20
2.60194
 30
0.0
 40
0
 41
0
  0
VERTEX
  8
0
 10
0.0564779
 20
2.56142
 30
0.0
 40
0
 41
0
  0
VERTEX
  8
0
 10
0.0339626
 20
2.56142
 30
0.0
 40
0
 41
0
  0
VERTEX
  8
0
 10
0.094184
 20
2.71924
 30
0.0
 40
0
 41
0
  0
SEQEND
 8
0
  0
POLYLINE
  8
0
 62
     0
 66
     1
 10
0
 20
0
 30
0.0
 40
1.94782
 41
1.94782
  0
VERTEX
  8
0
 10
2.05729
 20
2.45557
 30
0.0
 40
0.0270531
 41
0.0270531
  0
VERTEX
  8
0
 10
1.53554
 20
2.45557
 30
0.0
 40
0.0270531
 41
0.0270531
  0
SEQEND
 8
0
  0
POLYLINE
  8
0
 62
     0
 66
     1
 10
0
 20
0
 30
0.0
 70
     1
 40
0
 41
0
  0
VERTEX
  8
0
 10
2.12929
 20
2.53603
 30
0.0
 40
0
 41
0
  0
VERTEX
  8
0
 10
2.15224
 20
2.53603
 30
0.0
 40
0
 41
0
  0
VERTEX
  8
0
 10
2.19596
 20
2.47114
 30
0.0
 40
0
 41
0
  0
VERTEX
  8
0
 10
2.23942
 20
2.53603
 30
0.0
 40
0
 41
0
  0
VERTEX
  8
0
 10
2.26243
 20
2.53603
 30
0.0
 40
0
 41
0
  0
VERTEX
  8
0
 10
2.2066
 20
2.45329
 30
0.0
 40
0
 41
0
  0
VERTEX
  8
0
 10
2.2066
 20
2.37819
 30
0.0
 40
0
 41
0
  0
VERTEX
  8
0
 10
2.18511
 20
2.37819
 30
0.0
 40
0
 41
0
  0
VERTEX
  8
0
 10
2.18511
 20
2.45329
 30
0.0
 40
0
 41
0
  0
VERTEX
  8
0
 10
2.12929
 20
2.53603
 30
0.0
 40
0
 41
0
  0
SEQEND
 8
0
  0
POLYLINE
  8
0
 62
     172
 66
     1
 10
0
 20
0
 30
0.0
 70
     1
 40
1.95
 41
1.95
  0
VERTEX
  8
0
 10
0.702311
 20
2.79953
 30
0.0
 40
0.0270833
 41
0.0270833
  0
VERTEX
  8
0
 10
0.715224
 20
2.77707
 30
0.0
 40
0.0270833
 41
0.0270833
  0
VERTEX
  8
0
 10
0.748915
 20
2.70665
 30
0.0
 40
0.0270833
 41
0.0270833
  0
VERTEX
  8
0
 10
0.777724
 20
2.62185
 30
0.0
 40
0.0270833
 41
0.0270833
  0
VERTEX
  8
0
 10
0.792372
 20
2.54129
 30
0.0
 40
0.0270833
 41
0.0270833
  0
VERTEX
  8
0
 10
0.796496
 20
2.48118
 30
0.0
 40
0.0270833
 41
0.0270833
  0
VERTEX
  8
0
 10
0.796496
 20
2.4611
 30
0.0
 40
0.0270833
 41
0.0270833
  0
VERTEX
  8
0
 10
0.796496
 20
2.4165
 30
0.0
 40
0.0270833
 41
0.0270833
  0
VERTEX
  8
0
 10
0.772407
 20
2.28267
 30
0.0
 40
0.0270833
 41
0.0270833
  0
VERTEX
  8
0
 10
0.717611
 20
2.14903
 30
0.0
 40
0.0270833
 41
0.0270833
  0
VERTEX
  8
0
 10
0.702311
 20
2.12244
 30
0.0
 40
0.0270833
 41
0.0270833
  0
VERTEX
  8
0
 10
0.725857
 20
2.12244
 30
0.0
 40
0.0270833
 41
0.0270833
  0
VERTEX
  8
0
 10
0.79655
 20
2.12776
 30
0.0
 40
0.0270833
 41
0.0270833
  0
VERTEX
  8
0
 10
0.898438
 20
2.14356
 30
0.0
 40
0.0270833
 41
0.0270833
  0
VERTEX
  8
0
 10
1.0038
 20
2.16982
 30
0.0
 40
0.0270833
 41
0.0270833
  0
VERTEX
  8
0
 10
1.10845
 20
2.20632
 30
0.0
 40
0.0270833
 41
0.0270833
  0
VERTEX
  8
0
 10
1.20823
 20
2.25315
 30
0.0
 40
0.0270833
 41
0.0270833
  0
VERTEX
  8
0
 10
1.29888
 20
2.31011
 30
0.0
 40
0.0270833
 41
0.0270833
  0
VERTEX
  8
0
 10
1.37636
 20
2.37711
 30
0.0
 40
0.0270833
 41
0.0270833
  0
VERTEX
  8
0
 10
1.42372
 20
2.43338
 30
0.0
 40
0.0270833
 41
0.0270833
  0
VERTEX
  8
0
 10
1.43636
 20
2.45404
 30
0.0
 40
0.0270833
 41
0.0270833
  0
VERTEX
  8
0
 10
1.42333
 20
2.47374
 30
0.0
 40
0.0270833
 41
0.0270833
  0
VERTEX
  8
0
 10
1.37581
 20
2.52724
 30
0.0
 40
0.0270833
 41
0.0270833
  0
VERTEX
  8
0
 10
1.2978
 20
2.59375
 30
0.0
 40
0.0270833
 41
0.0270833
  0
VERTEX
  8
0
 10
1.2066
 20
2.65267
 30
0.0
 40
0.0270833
 41
0.0270833
  0
VERTEX
  8
0
 10
1.1065
 20
2.70296
 30
0.0
 40
0.0270833
 41
0.0270833
  0
VERTEX
  8
0
 10
1.00174
 20
2.74382
 30
0.0
 40
0.0270833
 41
0.0270833
  0
VERTEX
  8
0
 10
0.896593
 20
2.77414
 30
0.0
 40
0.0270833
 41
0.0270833
  0
VERTEX
  8
0
 10
0.795356
 20
2.79303
 30
0.0
 40
0.0270833
 41
0.0270833
  0
VERTEX
  8
0
 10
0.725532
 20
2.79953
 30
0.0
 40
0.0270833
 41
0.0270833
  0
VERTEX
  8
0
 10
0.702311
 20
2.79953
 30
0.0
 40
0.0270833
 41
0.0270833
  0
SEQEND
 8
0
  0
POLYLINE
  8
0
 62
     0
 66
     1
 10
0
 20
0
 30
0.0
 70
     1
 40
0
 41
0
  0
VERTEX
  8
0
 10
0.0796983
 20
2.27935
 30
0.0
 40
0
 41
0
  0
VERTEX
  8
0
 10
0.0796983
 20
2.22151
 30
0.0
 40
0
 41
0
  0
VERTEX
  8
0
 10
0.113932
 20
2.22151
 30
0.0
 40
0
 41
0
  0
VERTEX
  8
0
 10
0.12028
 20
2.22151
 30
0.0
 40
0
 41
0
  0
VERTEX
  8
0
 10
0.138021
 20
2.22743
 30
0.0
 40
0
 41
0
  0
VERTEX
  8
0
 10
0.139432
 20
2.22862
 30
0.0
 40
0
 41
0
  0
VERTEX
  8
0
 10
0.140787
 20
2.22982
 30
0.0
 40
0
 41
0
  0
VERTEX
  8
0
 10
0.147786
 20
2.24533
 30
0.0
 40
0
 41
0
  0
VERTEX
  8
0
 10
0.147786
 20
2.25049
 30
0.0
 40
0
 41
0
  0
VERTEX
  8
0
 10
0.147786
 20
2.25597
 30
0.0
 40
0
 41
0
  0
VERTEX
  8
0
 10
0.140787
 20
2.27111
 30
0.0
 40
0
 41
0
  0
VERTEX
  8
0
 10
0.139432
 20
2.27225
 30
0.0
 40
0
 41
0
  0
VERTEX
  8
0
 10
0.138021
 20
2.27344
 30
0.0
 40
0
 41
0
  0
VERTEX
  8
0
 10
0.119954
 20
2.27935
 30
0.0
 40
0
 41
0
  0
VERTEX
  8
0
 10
0.113932
 20
2.27935
 30
0.0
 40
0
 41
0
  0
VERTEX
  8
0
 10
0.0796983
 20
2.27935
 30
0.0
 40
0
 41
0
  0
SEQEND
 8
0
  0
POLYLINE
  8
0
 62
     0
 66
     1
 10
0
 20
0
 30
0.0
 70
     1
 40
0
 41
0
  0
VERTEX
  8
0
 10
0.0796983
 20
2.34424
 30
0.0
 40
0
 41
0
  0
VERTEX
  8
0
 10
0.0796983
 20
2.29665
 30
0.0
 40
0
 41
0
  0
VERTEX
  8
0
 10
0.111328
 20
2.29665
 30
0.0
 40
0
 41
0
  0
VERTEX
  8
0
 10
0.117133
 20
2.29665
 30
0.0
 40
0
 41
0
  0
VERTEX
  8
0
 10
0.133247
 20
2.30154
 30
0.0
 40
0
 41
0
  0
VERTEX
  8
0
 10
0.134549
 20
2.30246
 30
0.0
 40
0
 41
0
  0
VERTEX
  8
0
 10
0.135796
 20
2.3035
 30
0.0
 40
0
 41
0
  0
VERTEX
  8
0
 10
0.142253
 20
2.31619
 30
0.0
 40
0
 41
0
  0
VERTEX
  8
0
 10
0.142253
 20
2.32036
 30
0.0
 40
0
 41
0
  0
VERTEX
  8
0
 10
0.142253
 20
2.32488
 30
0.0
 40
0
 41
0
  0
VERTEX
  8
0
 10
0.135796
 20
2.33735
 30
0.0
 40
0
 41
0
  0
VERTEX
  8
0
 10
0.134549
 20
2.33832
 30
0.0
 40
0
 41
0
  0
VERTEX
  8
0
 10
0.133247
 20
2.33931
 30
0.0
 40
0
 41
0
  0
VERTEX
  8
0
 10
0.116808
 20
2.34424
 30
0.0
 40
0
 41
0
  0
VERTEX
  8
0
 10
0.111328
 20
2.34424
 30
0.0
 40
0
 41
0
  0
VERTEX
  8
0
 10
0.0796983
 20
2.34424
 30
0.0
 40
0
 41
0
  0
SEQEND
 8
0
  0
POLYLINE
  8
0
 62
     0
 66
     1
 10
0
 20
0
 30
0.0
 70
     1
 40
0
 41
0
  0
VERTEX
  8
0
 10
0.0583768
 20
2.36176
 30
0.0
 40
0
 41
0
  0
VERTEX
  8
0
 10
0.112902
 20
2.36176
 30
0.0
 40
0
 41
0
  0
VERTEX
  8
0
 10
0.122287
 20
2.36176
 30
0.0
 40
0
 41
0
  0
VERTEX
  8
0
 10
0.148275
 20
2.35335
 30
0.0
 40
0
 41
0
  0
VERTEX
  8
0
 10
0.150499
 20
2.35161
 30
0.0
 40
0
 41
0
  0
VERTEX
  8
0
 10
0.152669
 20
2.34993
 30
0.0
 40
0
 41
0
  0
VERTEX
  8
0
 10
0.163737
 20
2.32958
 30
0.0
 40
0
 41
0
  0
VERTEX
  8
0
 10
0.163737
 20
2.32275
 30
0.0
 40
0
 41
0
  0
VERTEX
  8
0
 10
0.163737
 20
2.317
 30
0.0
 40
0
 41
0
  0
VERTEX
  8
0
 10
0.15804
 20
2.30117
 30
0.0
 40
0
 41
0
  0
VERTEX
  8
0
 10
0.156956
 20
2.29975
 30
0.0
 40
0
 41
0
  0
VERTEX
  8
0
 10
0.155817
 20
2.29833
 30
0.0
 40
0
 41
0
  0
VERTEX
  8
0
 10
0.139268
 20
2.28939
 30
0.0
 40
0
 41
0
  0
VERTEX
  8
0
 10
0.137098
 20
2.28901
 30
0.0
 40
0
 41
0
  0
VERTEX
  8
0
 10
0.139703
 20
2.28847
 30
0.0
 40
0
 41
0
  0
VERTEX
  8
0
 10
0.160047
 20
2.27669
 30
0.0
 40
0
 41
0
  0
VERTEX
  8
0
 10
0.161512
 20
2.27485
 30
0.0
 40
0
 41
0
  0
VERTEX
  8
0
 10
0.162924
 20
2.27311
 30
0.0
 40
0
 41
0
  0
VERTEX
  8
0
 10
0.170247
 20
2.25439
 30
0.0
 40
0
 41
0
  0
VERTEX
  8
0
 10
0.170247
 20
2.2481
 30
0.0
 40
0
 41
0
  0
VERTEX
  8
0
 10
0.170247
 20
2.23996
 30
0.0
 40
0
 41
0
  0
VERTEX
  8
0
 10
0.158257
 20
2.21744
 30
0.0
 40
0
 41
0
  0
VERTEX
  8
0
 10
0.155871
 20
2.2155
 30
0.0
 40
0
 41
0
  0
VERTEX
  8
0
 10
0.153483
 20
2.2136
 30
0.0
 40
0
 41
0
  0
VERTEX
  8
0
 10
0.12462
 20
2.20394
 30
0.0
 40
0
 41
0
  0
VERTEX
  8
0
 10
0.115017
 20
2.20394
 30
0.0
 40
0
 41
0
  0
VERTEX
  8
0
 10
0.0583768
 20
2.20394
 30
0.0
 40
0
 41
0
  0
VERTEX
  8
0
 10
0.0583768
 20
2.36176
 30
0.0
 40
0
 41
0
  0
SEQEND
 8
0
  0
POLYLINE
  8
0
 62
     172
 66
     1
 10
0
 20
0
 30
0.0
 70
     1
 40
1.94782
 41
1.94782
  0
VERTEX
  8
0
 10
1.53472
 20
2.45389
 30
0.0
 40
0.0270531
 41
0.0270531
  0
VERTEX
  8
0
 10
1.53472
 20
2.44868
 30
0.0
 40
0.0270531
 41
0.0270531
  0
VERTEX
  8
0
 10
1.53071
 20
2.433
 30
0.0
 40
0.0270531
 41
0.0270531
  0
VERTEX
  8
0
 10
1.52029
 20
2.41803
 30
0.0
 40
0.0270531
 41
0.0270531
  0
VERTEX
  8
0
 10
1.50553
 20
2.40907
 30
0.0
 40
0.0270531
 41
0.0270531
  0
VERTEX
  8
0
 10
1.48861
 20
2.40603
 30
0.0
 40
0.0270531
 41
0.0270531
  0
VERTEX
  8
0
 10
1.47163
 20
2.40907
 30
0.0
 40
0.0270531
 41
0.0270531
  0
VERTEX
  8
0
 10
1.45687
 20
2.41803
 30
0.0
 40
0.0270531
 41
0.0270531
  0
VERTEX
  8
0
 10
1.44646
 20
2.433
 30
0.0
 40
0.0270531
 41
0.0270531
  0
VERTEX
  8
0
 10
1.44249
 20
2.44868
 30
0.0
 40
0.0270531
 41
0.0270531
  0
VERTEX
  8
0
 10
1.44249
 20
2.45389
 30
0.0
 40
0.0270531
 41
0.0270531
  0
VERTEX
  8
0
 10
1.44249
 20
2.45915
 30
0.0
 40
0.0270531
 41
0.0270531
  0
VERTEX
  8
0
 10
1.44646
 20
2.47483
 30
0.0
 40
0.0270531
 41
0.0270531
  0
VERTEX
  8
0
 10
1.45687
 20
2.48975
 30
0.0
 40
0.0270531
 41
0.0270531
  0
VERTEX
  8
0
 10
1.47163
 20
2.49875
 30
0.0
 40
0.0270531
 41
0.0270531
  0
VERTEX
  8
0
 10
1.48861
 20
2.50174
 30
0.0
 40
0.0270531
 41
0.0270531
  0
VERTEX
  8
0
 10
1.50553
 20
2.49875
 30
0.0
 40
0.0270531
 41
0.0270531
  0
VERTEX
  8
0
 10
1.52029
 20
2.48975
 30
0.0
 40
0.0270531
 41
0.0270531
  0
VERTEX
  8
0
 10
1.53071
 20
2.47483
 30
0.0
 40
0.0270531
 41
0.0270531
  0
VERTEX
  8
0
 10
1.53472
 20
2.45915
 30
0.0
 40
0.0270531
 41
0.0270531
  0
VERTEX
  8
0
 10
1.53472
 20
2.45389
 30
0.0
 40
0.0270531
 41
0.0270531
  0
SEQEND
 8
0
  0
POLYLINE
  8
0
 62
     0
 66
     1
 10
0
 20
0
 30
0.0
 70
     1
 40
0
 41
0
  0
VERTEX
  8
0
 10
3.77962
 20
5.92279
 30
0.0
 40
0
 41
0
  0
VERTEX
  8
0
 10
3.75065
 20
5.84435
 30
0.0
 40
0
 41
0
  0
VERTEX
  8
0
 10
3.80871
 20
5.84435
 30
0.0
 40
0
 41
0
  0
VERTEX
  8
0
 10
3.77962
 20
5.92279
 30
0.0
 40
0
 41
0
  0
SEQEND
 8
0
  0
POLYLINE
  8
0
 62
     0
 66
     1
 10
0
 20
0
 30
0.0
 70
     1
 40
0
 41
0
  0
VERTEX
  8
0
 10
3.76753
 20
5.94379
 30
0.0
 40
0
 41
0
  0
VERTEX
  8
0
 10
3.79172
 20
5.94379
 30
0.0
 40
0
 41
0
  0
VERTEX
  8
0
 10
3.85194
 20
5.78614
 30
0.0
 40
0
 41
0
  0
VERTEX
  8
0
 10
3.82975
 20
5.78614
 30
0.0
 40
0
 41
0
  0
VERTEX
  8
0
 10
3.81538
 20
5.82656
 30
0.0
 40
0
 41
0
  0
VERTEX
  8
0
 10
3.74419
 20
5.82656
 30
0.0
 40
0
 41
0
  0
VERTEX
  8
0
 10
3.72982
 20
5.78614
 30
0.0
 40
0
 41
0
  0
VERTEX
  8
0
 10
3.70736
 20
5.78614
 30
0.0
 40
0
 41
0
  0
VERTEX
  8
0
 10
3.76753
 20
5.94379
 30
0.0
 40
0
 41
0
  0
SEQEND
 8
0
  0
POLYLINE
  8
0
 62
     0
 66
     1
 10
0
 20
0
 30
0.0
 70
     1
 40
0
 41
0
  0
VERTEX
  8
0
 10
3.77556
 20
4.78851
 30
0.0
 40
0
 41
0
  0
VERTEX
  8
0
 10
3.74658
 20
4.70996
 30
0.0
 40
0
 41
0
  0
VERTEX
  8
0
 10
3.80458
 20
4.70996
 30
0.0
 40
0
 41
0
  0
VERTEX
  8
0
 10
3.77556
 20
4.78851
 30
0.0
 40
0
 41
0
  0
SEQEND
 8
0
  0
POLYLINE
  8
0
 62
     0
 66
     1
 10
0
 20
0
 30
0.0
 70
     1
 40
0
 41
0
  0
VERTEX
  8
0
 10
3.76346
 20
4.80946
 30
0.0
 40
0
 41
0
  0
VERTEX
  8
0
 10
3.78771
 20
4.80946
 30
0.0
 40
0
 41
0
  0
VERTEX
  8
0
 10
3.84782
 20
4.65175
 30
0.0
 40
0
 41
0
  0
VERTEX
  8
0
 10
3.82563
 20
4.65175
 30
0.0
 40
0
 41
0
  0
VERTEX
  8
0
 10
3.81125
 20
4.69217
 30
0.0
 40
0
 41
0
  0
VERTEX
  8
0
 10
3.74013
 20
4.69217
 30
0.0
 40
0
 41
0
  0
VERTEX
  8
0
 10
3.72575
 20
4.65175
 30
0.0
 40
0
 41
0
  0
VERTEX
  8
0
 10
3.70324
 20
4.65175
 30
0.0
 40
0
 41
0
  0
VERTEX
  8
0
 10
3.76346
 20
4.80946
 30
0.0
 40
0
 41
0
  0
SEQEND
 8
0
  0
POLYLINE
  8
0
 62
     0
 66
     1
 10
0
 20
0
 30
0.0
 40
1.94782
 41
1.94782
  0
VERTEX
  8
0
 10
5.56879
 20
4.73801
 30
0.0
 40
0.0270531
 41
0.0270531
  0
VERTEX
  8
0
 10
5.04699
 20
4.73801
 30
0.0
 40
0.0270531
 41
0.0270531
  0
SEQEND
 8
0
  0
POLYLINE
  8
0
 62
     0
 66
     1
 10
0
 20
0
 30
0.0
 70
     1
 40
0
 41
0
  0
VERTEX
  8
0
 10
5.64085
 20
4.81842
 30
0.0
 40
0
 41
0
  0
VERTEX
  8
0
 10
5.66379
 20
4.81842
 30
0.0
 40
0
 41
0
  0
VERTEX
  8
0
 10
5.70751
 20
4.75353
 30
0.0
 40
0
 41
0
  0
VERTEX
  8
0
 10
5.75097
 20
4.81842
 30
0.0
 40
0
 41
0
  0
VERTEX
  8
0
 10
5.77387
 20
4.81842
 30
0.0
 40
0
 41
0
  0
VERTEX
  8
0
 10
5.71804
 20
4.73568
 30
0.0
 40
0
 41
0
  0
VERTEX
  8
0
 10
5.71804
 20
4.6606
 30
0.0
 40
0
 41
0
  0
VERTEX
  8
0
 10
5.69656
 20
4.6606
 30
0.0
 40
0
 41
0
  0
VERTEX
  8
0
 10
5.69656
 20
4.73568
 30
0.0
 40
0
 41
0
  0
VERTEX
  8
0
 10
5.64085
 20
4.81842
 30
0.0
 40
0
 41
0
  0
SEQEND
 8
0
  0
POLYLINE
  8
0
 62
     0
 66
     1
 10
0
 20
0
 30
0.0
 40
1.94782
 41
1.94782
  0
VERTEX
  8
0
 10
4.43647
 20
4.73193
 30
0.0
 40
0.0270531
 41
0.0270531
  0
VERTEX
  8
0
 10
3.91471
 20
4.73193
 30
0.0
 40
0.0270531
 41
0.0270531
  0
SEQEND
 8
0
  0
POLYLINE
  8
0
 62
     172
 66
     1
 10
0
 20
0
 30
0.0
 70
     1
 40
1.95
 41
1.95
  0
VERTEX
  8
0
 10
4.95199
 20
4.73101
 30
0.0
 40
0.0270833
 41
0.0270833
  0
VERTEX
  8
0
 10
4.42899
 20
4.42904
 30
0.0
 40
0.0270833
 41
0.0270833
  0
VERTEX
  8
0
 10
4.42899
 20
5.03304
 30
0.0
 40
0.0270833
 41
0.0270833
  0
VERTEX
  8
0
 10
4.95199
 20
4.73101
 30
0.0
 40
0.0270833
 41
0.0270833
  0
SEQEND
 8
0
  0
POLYLINE
  8
0
 62
     172
 66
     1
 10
0
 20
0
 30
0.0
 70
     1
 40
1.94782
 41
1.94782
  0
VERTEX
  8
0
 10
5.04796
 20
4.734
 30
0.0
 40
0.0270531
 41
0.0270531
  0
VERTEX
  8
0
 10
5.04796
 20
4.72879
 30
0.0
 40
0.0270531
 41
0.0270531
  0
VERTEX
  8
0
 10
5.04394
 20
4.71311
 30
0.0
 40
0.0270531
 41
0.0270531
  0
VERTEX
  8
0
 10
5.03353
 20
4.69814
 30
0.0
 40
0.0270531
 41
0.0270531
  0
VERTEX
  8
0
 10
5.01878
 20
4.68918
 30
0.0
 40
0.0270531
 41
0.0270531
  0
VERTEX
  8
0
 10
5.00185
 20
4.68614
 30
0.0
 40
0.0270531
 41
0.0270531
  0
VERTEX
  8
0
 10
4.98486
 20
4.68918
 30
0.0
 40
0.0270531
 41
0.0270531
  0
VERTEX
  8
0
 10
4.97011
 20
4.69814
 30
0.0
 40
0.0270531
 41
0.0270531
  0
VERTEX
  8
0
 10
4.95969
 20
4.71311
 30
0.0
 40
0.0270531
 41
0.0270531
  0
VERTEX
  8
0
 10
4.95574
 20
4.72879
 30
0.0
 40
0.0270531
 41
0.0270531
  0
VERTEX
  8
0
 10
4.95574
 20
4.734
 30
0.0
 40
0.0270531
 41
0.0270531
  0
VERTEX
  8
0
 10
4.95574
 20
4.73926
 30
0.0
 40
0.0270531
 41
0.0270531
  0
VERTEX
  8
0
 10
4.95969
 20
4.75493
 30
0.0
 40
0.0270531
 41
0.0270531
  0
VERTEX
  8
0
 10
4.97011
 20
4.76986
 30
0.0
 40
0.0270531
 41
0.0270531
  0
VERTEX
  8
0
 10
4.98486
 20
4.77886
 30
0.0
 40
0.0270531
 41
0.0270531
  0
VERTEX
  8
0
 10
5.00185
 20
4.78185
 30
0.0
 40
0.0270531
 41
0.0270531
  0
VERTEX
  8
0
 10
5.01878
 20
4.77886
 30
0.0
 40
0.0270531
 41
0.0270531
  0
VERTEX
  8
0
 10
5.03353
 20
4.76986
 30
0.0
 40
0.0270531
 41
0.0270531
  0
VERTEX
  8
0
 10
5.04394
 20
4.75493
 30
0.0
 40
0.0270531
 41
0.0270531
  0
VERTEX
  8
0
 10
5.04796
 20
4.73926
 30
0.0
 40
0.0270531
 41
0.0270531
  0
VERTEX
  8
0
 10
5.04796
 20
4.734
 30
0.0
 40
0.0270531
 41
0.0270531
  0
SEQEND
 8
0
  0
POLYLINE
  8
0
 62
     0
 66
     1
 10
0
 20
0
 30
0.0
 40
1.94782
 41
1.94782
  0
VERTEX
  8
0
 10
0.77615
 20
1.46767
 30
0.0
 40
0.0270531
 41
0.0270531
  0
VERTEX
  8
0
 10
0.254449
 20
1.46767
 30
0.0
 40
0.0270531
 41
0.0270531
  0
SEQEND
 8
0
  0
POLYLINE
  8
0
 62
     0
 66
     1
 10
0
 20
0
 30
0.0
 40
1.94782
 41
1.94782
  0
VERTEX
  8
0
 10
0.77615
 20
1.1103
 30
0.0
 40
0.0270531
 41
0.0270531
  0
VERTEX
  8
0
 10
0.254449
 20
1.1103
 30
0.0
 40
0.0270531
 41
0.0270531
  0
SEQEND
 8
0
  0
POLYLINE
  8
0
 62
     0
 66
     1
 10
0
 20
0
 30
0.0
 70
     1
 40
0
 41
0
  0
VERTEX
  8
0
 10
0.113444
 20
1.52561
 30
0.0
 40
0
 41
0
  0
VERTEX
  8
0
 10
0.0844726
 20
1.44706
 30
0.0
 40
0
 41
0
  0
VERTEX
  8
0
 10
0.142524
 20
1.44706
 30
0.0
 40
0
 41
0
  0
VERTEX
  8
0
 10
0.113444
 20
1.52561
 30
0.0
 40
0
 41
0
  0
SEQEND
 8
0
  0
POLYLINE
  8
0
 62
     0
 66
     1
 10
0
 20
0
 30
0.0
 70
     1
 40
0
 41
0
  0
VERTEX
  8
0
 10
0.1014
 20
1.54665
 30
0.0
 40
0
 41
0
  0
VERTEX
  8
0
 10
0.125597
 20
1.54665
 30
0.0
 40
0
 41
0
  0
VERTEX
  8
0
 10
0.18571
 20
1.38883
 30
0.0
 40
0
 41
0
  0
VERTEX
  8
0
 10
0.163519
 20
1.38883
 30
0.0
 40
0
 41
0
  0
VERTEX
  8
0
 10
0.149143
 20
1.42936
 30
0.0
 40
0
 41
0
  0
VERTEX
  8
0
 10
0.0780165
 20
1.42936
 30
0.0
 40
0
 41
0
  0
VERTEX
  8
0
 10
0.0636936
 20
1.38883
 30
0.0
 40
0
 41
0
  0
VERTEX
  8
0
 10
0.0411783
 20
1.38883
 30
0.0
 40
0
 41
0
  0
VERTEX
  8
0
 10
0.1014
 20
1.54665
 30
0.0
 40
0
 41
0
  0
SEQEND
 8
0
  0
POLYLINE
  8
0
 62
     0
 66
     1
 10
0
 20
0
 30
0.0
 40
1.94782
 41
1.94782
  0
VERTEX
  8
0
 10
2.03657
 20
1.28299
 30
0.0
 40
0.0270531
 41
0.0270531
  0
VERTEX
  8
0
 10
1.51481
 20
1.28299
 30
0.0
 40
0.0270531
 41
0.0270531
  0
SEQEND
 8
0
  0
POLYLINE
  8
0
 62
     0
 66
     1
 10
0
 20
0
 30
0.0
 70
     1
 40
0
 41
0
  0
VERTEX
  8
0
 10
2.10867
 20
1.36328
 30
0.0
 40
0
 41
0
  0
VERTEX
  8
0
 10
2.13157
 20
1.36328
 30
0.0
 40
0
 41
0
  0
VERTEX
  8
0
 10
2.17535
 20
1.2985
 30
0.0
 40
0
 41
0
  0
VERTEX
  8
0
 10
2.21875
 20
1.36328
 30
0.0
 40
0
 41
0
  0
VERTEX
  8
0
 10
2.24169
 20
1.36328
 30
0.0
 40
0
 41
0
  0
VERTEX
  8
0
 10
2.18587
 20
1.28071
 30
0.0
 40
0
 41
0
  0
VERTEX
  8
0
 10
2.18587
 20
1.20557
 30
0.0
 40
0
 41
0
  0
VERTEX
  8
0
 10
2.16439
 20
1.20557
 30
0.0
 40
0
 41
0
  0
VERTEX
  8
0
 10
2.16439
 20
1.28071
 30
0.0
 40
0
 41
0
  0
VERTEX
  8
0
 10
2.10867
 20
1.36328
 30
0.0
 40
0
 41
0
  0
SEQEND
 8
0
  0
POLYLINE
  8
0
 62
     172
 66
     1
 10
0
 20
0
 30
0.0
 70
     1
 40
1.95
 41
1.95
  0
VERTEX
  8
0
 10
0.79286
 20
1.62685
 30
0.0
 40
0.0270833
 41
0.0270833
  0
VERTEX
  8
0
 10
0.805772
 20
1.60444
 30
0.0
 40
0.0270833
 41
0.0270833
  0
VERTEX
  8
0
 10
0.83941
 20
1.53401
 30
0.0
 40
0.0270833
 41
0.0270833
  0
VERTEX
  8
0
 10
0.868218
 20
1.44922
 30
0.0
 40
0.0270833
 41
0.0270833
  0
VERTEX
  8
0
 10
0.882867
 20
1.36871
 30
0.0
 40
0.0270833
 41
0.0270833
  0
VERTEX
  8
0
 10
0.88699
 20
1.30859
 30
0.0
 40
0.0270833
 41
0.0270833
  0
VERTEX
  8
0
 10
0.88699
 20
1.28852
 30
0.0
 40
0.0270833
 41
0.0270833
  0
VERTEX
  8
0
 10
0.88699
 20
1.24392
 30
0.0
 40
0.0270833
 41
0.0270833
  0
VERTEX
  8
0
 10
0.862901
 20
1.10997
 30
0.0
 40
0.0270833
 41
0.0270833
  0
VERTEX
  8
0
 10
0.80816
 20
0.976346
 30
0.0
 40
0.0270833
 41
0.0270833
  0
VERTEX
  8
0
 10
0.79286
 20
0.949761
 30
0.0
 40
0.0270833
 41
0.0270833
  0
VERTEX
  8
0
 10
0.816407
 20
0.949761
 30
0.0
 40
0.0270833
 41
0.0270833
  0
VERTEX
  8
0
 10
0.887044
 20
0.955078
 30
0.0
 40
0.0270833
 41
0.0270833
  0
VERTEX
  8
0
 10
0.988932
 20
0.970865
 30
0.0
 40
0.0270833
 41
0.0270833
  0
VERTEX
  8
0
 10
1.09435
 20
0.997125
 30
0.0
 40
0.0270833
 41
0.0270833
  0
VERTEX
  8
0
 10
1.199
 20
1.03369
 30
0.0
 40
0.0270833
 41
0.0270833
  0
VERTEX
  8
0
 10
1.29877
 20
1.08051
 30
0.0
 40
0.0270833
 41
0.0270833
  0
VERTEX
  8
0
 10
1.38943
 20
1.13748
 30
0.0
 40
0.0270833
 41
0.0270833
  0
VERTEX
  8
0
 10
1.4669
 20
1.20448
 30
0.0
 40
0.0270833
 41
0.0270833
  0
VERTEX
  8
0
 10
1.51426
 20
1.26074
 30
0.0
 40
0.0270833
 41
0.0270833
  0
VERTEX
  8
0
 10
1.52692
 20
1.28141
 30
0.0
 40
0.0270833
 41
0.0270833
  0
VERTEX
  8
0
 10
1.51389
 20
1.30111
 30
0.0
 40
0.0270833
 41
0.0270833
  0
VERTEX
  8
0
 10
1.46631
 20
1.3546
 30
0.0
 40
0.0270833
 41
0.0270833
  0
VERTEX
  8
0
 10
1.38835
 20
1.42111
 30
0.0
 40
0.0270833
 41
0.0270833
  0
VERTEX
  8
0
 10
1.29715
 20
1.47999
 30
0.0
 40
0.0270833
 41
0.0270833
  0
VERTEX
  8
0
 10
1.19705
 20
1.53033
 30
0.0
 40
0.0270833
 41
0.0270833
  0
VERTEX
  8
0
 10
1.09228
 20
1.57113
 30
0.0
 40
0.0270833
 41
0.0270833
  0
VERTEX
  8
0
 10
0.987142
 20
1.60146
 30
0.0
 40
0.0270833
 41
0.0270833
  0
VERTEX
  8
0
 10
0.885906
 20
1.62033
 30
0.0
 40
0.0270833
 41
0.0270833
  0
VERTEX
  8
0
 10
0.816081
 20
1.62685
 30
0.0
 40
0.0270833
 41
0.0270833
  0
VERTEX
  8
0
 10
0.79286
 20
1.62685
 30
0.0
 40
0.0270833
 41
0.0270833
  0
SEQEND
 8
0
  0
POLYLINE
  8
0
 62
     0
 66
     1
 10
0
 20
0
 30
0.0
 70
     1
 40
0
 41
0
  0
VERTEX
  8
0
 10
0.0868599
 20
1.10672
 30
0.0
 40
0
 41
0
  0
VERTEX
  8
0
 10
0.0868599
 20
1.04894
 30
0.0
 40
0
 41
0
  0
VERTEX
  8
0
 10
0.121148
 20
1.04894
 30
0.0
 40
0
 41
0
  0
VERTEX
  8
0
 10
0.127496
 20
1.04894
 30
0.0
 40
0
 41
0
  0
VERTEX
  8
0
 10
0.145182
 20
1.0548
 30
0.0
 40
0
 41
0
  0
VERTEX
  8
0
 10
0.146593
 20
1.05599
 30
0.0
 40
0
 41
0
  0
VERTEX
  8
0
 10
0.147949
 20
1.05724
 30
0.0
 40
0
 41
0
  0
VERTEX
  8
0
 10
0.154949
 20
1.07275
 30
0.0
 40
0
 41
0
  0
VERTEX
  8
0
 10
0.154949
 20
1.07791
 30
0.0
 40
0
 41
0
  0
VERTEX
  8
0
 10
0.154949
 20
1.08339
 30
0.0
 40
0
 41
0
  0
VERTEX
  8
0
 10
0.147949
 20
1.09853
 30
0.0
 40
0
 41
0
  0
VERTEX
  8
0
 10
0.146593
 20
1.09966
 30
0.0
 40
0
 41
0
  0
VERTEX
  8
0
 10
0.145182
 20
1.10086
 30
0.0
 40
0
 41
0
  0
VERTEX
  8
0
 10
0.127116
 20
1.10672
 30
0.0
 40
0
 41
0
  0
VERTEX
  8
0
 10
0.121148
 20
1.10672
 30
0.0
 40
0
 41
0
  0
VERTEX
  8
0
 10
0.0868599
 20
1.10672
 30
0.0
 40
0
 41
0
  0
SEQEND
 8
0
  0
POLYLINE
  8
0
 62
     0
 66
     1
 10
0
 20
0
 30
0.0
 70
     1
 40
0
 41
0
  0
VERTEX
  8
0
 10
0.0868599
 20
1.17166
 30
0.0
 40
0
 41
0
  0
VERTEX
  8
0
 10
0.0868599
 20
1.12402
 30
0.0
 40
0
 41
0
  0
VERTEX
  8
0
 10
0.11849
 20
1.12402
 30
0.0
 40
0
 41
0
  0
VERTEX
  8
0
 10
0.124295
 20
1.12402
 30
0.0
 40
0
 41
0
  0
VERTEX
  8
0
 10
0.140463
 20
1.12896
 30
0.0
 40
0
 41
0
  0
VERTEX
  8
0
 10
0.141764
 20
1.12988
 30
0.0
 40
0
 41
0
  0
VERTEX
  8
0
 10
0.143012
 20
1.13091
 30
0.0
 40
0
 41
0
  0
VERTEX
  8
0
 10
0.149468
 20
1.14361
 30
0.0
 40
0
 41
0
  0
VERTEX
  8
0
 10
0.149468
 20
1.14779
 30
0.0
 40
0
 41
0
  0
VERTEX
  8
0
 10
0.149468
 20
1.15229
 30
0.0
 40
0
 41
0
  0
VERTEX
  8
0
 10
0.143012
 20
1.16471
 30
0.0
 40
0
 41
0
  0
VERTEX
  8
0
 10
0.141764
 20
1.16569
 30
0.0
 40
0
 41
0
  0
VERTEX
  8
0
 10
0.140463
 20
1.16672
 30
0.0
 40
0
 41
0
  0
VERTEX
  8
0
 10
0.123969
 20
1.17166
 30
0.0
 40
0
 41
0
  0
VERTEX
  8
0
 10
0.11849
 20
1.17166
 30
0.0
 40
0
 41
0
  0
VERTEX
  8
0
 10
0.0868599
 20
1.17166
 30
0.0
 40
0
 41
0
  0
SEQEND
 8
0
  0
POLYLINE
  8
0
 62
     0
 66
     1
 10
0
 20
0
 30
0.0
 70
     1
 40
0
 41
0
  0
VERTEX
  8
0
 10
0.0655382
 20
1.18913
 30
0.0
 40
0
 41
0
  0
VERTEX
  8
0
 10
0.120063
 20
1.18913
 30
0.0
 40
0
 41
0
  0
VERTEX
  8
0
 10
0.129449
 20
1.18913
 30
0.0
 40
0
 41
0
  0
VERTEX
  8
0
 10
0.155436
 20
1.18072
 30
0.0
 40
0
 41
0
  0
VERTEX
  8
0
 10
0.157661
 20
1.17904
 30
0.0
 40
0
 41
0
  0
VERTEX
  8
0
 10
0.159831
 20
1.17735
 30
0.0
 40
0
 41
0
  0
VERTEX
  8
0
 10
0.170899
 20
1.15701
 30
0.0
 40
0
 41
0
  0
VERTEX
  8
0
 10
0.170899
 20
1.15017
 30
0.0
 40
0
 41
0
  0
VERTEX
  8
0
 10
0.170899
 20
1.14442
 30
0.0
 40
0
 41
0
  0
VERTEX
  8
0
 10
0.165201
 20
1.12853
 30
0.0
 40
0
 41
0
  0
VERTEX
  8
0
 10
0.164117
 20
1.12706
 30
0.0
 40
0
 41
0
  0
VERTEX
  8
0
 10
0.162978
 20
1.12565
 30
0.0
 40
0
 41
0
  0
VERTEX
  8
0
 10
0.146431
 20
1.11681
 30
0.0
 40
0
 41
0
  0
VERTEX
  8
0
 10
0.14426
 20
1.11643
 30
0.0
 40
0
 41
0
  0
VERTEX
  8
0
 10
0.146864
 20
1.11589
 30
0.0
 40
0
 41
0
  0
VERTEX
  8
0
 10
0.16721
 20
1.10406
 30
0.0
 40
0
 41
0
  0
VERTEX
  8
0
 10
0.168674
 20
1.10227
 30
0.0
 40
0
 41
0
  0
VERTEX
  8
0
 10
0.170139
 20
1.10053
 30
0.0
 40
0
 41
0
  0
VERTEX
  8
0
 10
0.177462
 20
1.08176
 30
0.0
 40
0
 41
0
  0
VERTEX
  8
0
 10
0.177462
 20
1.07547
 30
0.0
 40
0
 41
0
  0
VERTEX
  8
0
 10
0.177462
 20
1.06733
 30
0.0
 40
0
 41
0
  0
VERTEX
  8
0
 10
0.165474
 20
1.04481
 30
0.0
 40
0
 41
0
  0
VERTEX
  8
0
 10
0.163086
 20
1.04286
 30
0.0
 40
0
 41
0
  0
VERTEX
  8
0
 10
0.160644
 20
1.04096
 30
0.0
 40
0
 41
0
  0
VERTEX
  8
0
 10
0.131782
 20
1.0313
 30
0.0
 40
0
 41
0
  0
VERTEX
  8
0
 10
0.122179
 20
1.0313
 30
0.0
 40
0
 41
0
  0
VERTEX
  8
0
 10
0.0655382
 20
1.0313
 30
0.0
 40
0
 41
0
  0
VERTEX
  8
0
 10
0.0655382
 20
1.18913
 30
0.0
 40
0
 41
0
  0
SEQEND
 8
0
  0
POLYLINE
  8
0
 62
     172
 66
     1
 10
0
 20
0
 30
0.0
 40
1.95
 41
1.95
  0
VERTEX
  8
0
 10
0.704101
 20
1.62674
 30
0.0
 40
0.0270833
 41
0.0270833
  0
VERTEX
  8
0
 10
0.717068
 20
1.60433
 30
0.0
 40
0.0270833
 41
0.0270833
  0
VERTEX
  8
0
 10
0.750706
 20
1.5339
 30
0.0
 40
0.0270833
 41
0.0270833
  0
VERTEX
  8
0
 10
0.779514
 20
1.44906
 30
0.0
 40
0.0270833
 41
0.0270833
  0
VERTEX
  8
0
 10
0.794108
 20
1.36849
 30
0.0
 40
0.0270833
 41
0.0270833
  0
VERTEX
  8
0
 10
0.798232
 20
1.30838
 30
0.0
 40
0.0270833
 41
0.0270833
  0
VERTEX
  8
0
 10
0.798232
 20
1.2883
 30
0.0
 40
0.0270833
 41
0.0270833
  0
VERTEX
  8
0
 10
0.798232
 20
1.24371
 30
0.0
 40
0.0270833
 41
0.0270833
  0
VERTEX
  8
0
 10
0.774143
 20
1.10986
 30
0.0
 40
0.0270833
 41
0.0270833
  0
VERTEX
  8
0
 10
0.719401
 20
0.976238
 30
0.0
 40
0.0270833
 41
0.0270833
  0
VERTEX
  8
0
 10
0.704101
 20
0.949653
 30
0.0
 40
0.0270833
 41
0.0270833
  0
SEQEND
 8
0
  0
POLYLINE
  8
0
 62
     0
 66
     1
 10
0
 20
0
 30
0.0
 40
1.94782
 41
1.94782
  0
VERTEX
  8
0
 10
0.77615
 20
0.531629
 30
0.0
 40
0.0270531
 41
0.0270531
  0
VERTEX
  8
0
 10
0.254449
 20
0.531629
 30
0.0
 40
0.0270531
 41
0.0270531
  0
SEQEND
 8
0
  0
POLYLINE
  8
0
 62
     0
 66
     1
 10
0
 20
0
 30
0.0
 40
1.94782
 41
1.94782
  0
VERTEX
  8
0
 10
0.77615
 20
0.174154
 30
0.0
 40
0.0270531
 41
0.0270531
  0
VERTEX
  8
0
 10
0.254449
 20
0.174154
 30
0.0
 40
0.0270531
 41
0.0270531
  0
SEQEND
 8
0
  0
POLYLINE
  8
0
 62
     0
 66
     1
 10
0
 20
0
 30
0.0
 70
     1
 40
0
 41
0
  0
VERTEX
  8
0
 10
0.113444
 20
0.589572
 30
0.0
 40
0
 41
0
  0
VERTEX
  8
0
 10
0.0844726
 20
0.511014
 30
0.0
 40
0
 41
0
  0
VERTEX
  8
0
 10
0.142524
 20
0.511014
 30
0.0
 40
0
 41
0
  0
VERTEX
  8
0
 10
0.113444
 20
0.589572
 30
0.0
 40
0
 41
0
  0
SEQEND
 8
0
  0
POLYLINE
  8
0
 62
     0
 66
     1
 10
0
 20
0
 30
0.0
 70
     1
 40
0
 41
0
  0
VERTEX
  8
0
 10
0.1014
 20
0.61046
 30
0.0
 40
0
 41
0
  0
VERTEX
  8
0
 10
0.125597
 20
0.61046
 30
0.0
 40
0
 41
0
  0
VERTEX
  8
0
 10
0.18571
 20
0.4528
 30
0.0
 40
0
 41
0
  0
VERTEX
  8
0
 10
0.163519
 20
0.4528
 30
0.0
 40
0
 41
0
  0
VERTEX
  8
0
 10
0.149143
 20
0.493218
 30
0.0
 40
0
 41
0
  0
VERTEX
  8
0
 10
0.0780165
 20
0.493218
 30
0.0
 40
0
 41
0
  0
VERTEX
  8
0
 10
0.0636936
 20
0.4528
 30
0.0
 40
0
 41
0
  0
VERTEX
  8
0
 10
0.0411783
 20
0.4528
 30
0.0
 40
0
 41
0
  0
VERTEX
  8
0
 10
0.1014
 20
0.61046
 30
0.0
 40
0
 41
0
  0
SEQEND
 8
0
  0
POLYLINE
  8
0
 62
     0
 66
     1
 10
0
 20
0
 30
0.0
 40
1.94782
 41
1.94782
  0
VERTEX
  8
0
 10
2.14253
 20
0.346951
 30
0.0
 40
0.0270531
 41
0.0270531
  0
VERTEX
  8
0
 10
1.62076
 20
0.346951
 30
0.0
 40
0.0270531
 41
0.0270531
  0
SEQEND
 8
0
  0
POLYLINE
  8
0
 62
     0
 66
     1
 10
0
 20
0
 30
0.0
 70
     1
 40
0
 41
0
  0
VERTEX
  8
0
 10
2.21451
 20
0.427246
 30
0.0
 40
0
 41
0
  0
VERTEX
  8
0
 10
2.23742
 20
0.427246
 30
0.0
 40
0
 41
0
  0
VERTEX
  8
0
 10
2.28114
 20
0.362358
 30
0.0
 40
0
 41
0
  0
VERTEX
  8
0
 10
2.3246
 20
0.427246
 30
0.0
 40
0
 41
0
  0
VERTEX
  8
0
 10
2.34754
 20
0.427246
 30
0.0
 40
0
 41
0
  0
VERTEX
  8
0
 10
2.29178
 20
0.344672
 30
0.0
 40
0
 41
0
  0
VERTEX
  8
0
 10
2.29178
 20
0.269422
 30
0.0
 40
0
 41
0
  0
VERTEX
  8
0
 10
2.27035
 20
0.269422
 30
0.0
 40
0
 41
0
  0
VERTEX
  8
0
 10
2.27035
 20
0.344672
 30
0.0
 40
0
 41
0
  0
VERTEX
  8
0
 10
2.21451
 20
0.427246
 30
0.0
 40
0
 41
0
  0
SEQEND
 8
0
  0
POLYLINE
  8
0
 62
     172
 66
     1
 10
0
 20
0
 30
0.0
 70
     1
 40
1.95
 41
1.95
  0
VERTEX
  8
0
 10
0.79286
 20
0.69081
 30
0.0
 40
0.0270833
 41
0.0270833
  0
VERTEX
  8
0
 10
0.805772
 20
0.668403
 30
0.0
 40
0.0270833
 41
0.0270833
  0
VERTEX
  8
0
 10
0.83941
 20
0.597928
 30
0.0
 40
0.0270833
 41
0.0270833
  0
VERTEX
  8
0
 10
0.868218
 20
0.513129
 30
0.0
 40
0.0270833
 41
0.0270833
  0
VERTEX
  8
0
 10
0.882867
 20
0.432617
 30
0.0
 40
0.0270833
 41
0.0270833
  0
VERTEX
  8
0
 10
0.88699
 20
0.37245
 30
0.0
 40
0.0270833
 41
0.0270833
  0
VERTEX
  8
0
 10
0.88699
 20
0.352376
 30
0.0
 40
0.0270833
 41
0.0270833
  0
VERTEX
  8
0
 10
0.88699
 20
0.307781
 30
0.0
 40
0.0270833
 41
0.0270833
  0
VERTEX
  8
0
 10
0.862901
 20
0.173936
 30
0.0
 40
0.0270833
 41
0.0270833
  0
VERTEX
  8
0
 10
0.80816
 20
0.0403103
 30
0.0
 40
0.0270833
 41
0.0270833
  0
VERTEX
  8
0
 10
0.79286
 20
0.0137261
 30
0.0
 40
0.0270833
 41
0.0270833
  0
VERTEX
  8
0
 10
0.816407
 20
0.0137261
 30
0.0
 40
0.0270833
 41
0.0270833
  0
VERTEX
  8
0
 10
0.887044
 20
0.0190429
 30
0.0
 40
0.0270833
 41
0.0270833
  0
VERTEX
  8
0
 10
0.988932
 20
0.0348307
 30
0.0
 40
0.0270833
 41
0.0270833
  0
VERTEX
  8
0
 10
1.09435
 20
0.0610894
 30
0.0
 40
0.0270833
 41
0.0270833
  0
VERTEX
  8
0
 10
1.199
 20
0.0976563
 30
0.0
 40
0.0270833
 41
0.0270833
  0
VERTEX
  8
0
 10
1.29877
 20
0.144476
 30
0.0
 40
0.0270833
 41
0.0270833
  0
VERTEX
  8
0
 10
1.38943
 20
0.201443
 30
0.0
 40
0.0270833
 41
0.0270833
  0
VERTEX
  8
0
 10
1.4669
 20
0.268446
 30
0.0
 40
0.0270833
 41
0.0270833
  0
VERTEX
  8
0
 10
1.51426
 20
0.324707
 30
0.0
 40
0.0270833
 41
0.0270833
  0
VERTEX
  8
0
 10
1.52692
 20
0.345378
 30
0.0
 40
0.0270833
 41
0.0270833
  0
VERTEX
  8
0
 10
1.51389
 20
0.365072
 30
0.0
 40
0.0270833
 41
0.0270833
  0
VERTEX
  8
0
 10
1.46631
 20
0.418565
 30
0.0
 40
0.0270833
 41
0.0270833
  0
VERTEX
  8
0
 10
1.38835
 20
0.485081
 30
0.0
 40
0.0270833
 41
0.0270833
  0
VERTEX
  8
0
 10
1.29715
 20
0.543946
 30
0.0
 40
0.0270833
 41
0.0270833
  0
VERTEX
  8
0
 10
1.19705
 20
0.594293
 30
0.0
 40
0.0270833
 41
0.0270833
  0
VERTEX
  8
0
 10
1.09228
 20
0.635092
 30
0.0
 40
0.0270833
 41
0.0270833
  0
VERTEX
  8
0
 10
0.987142
 20
0.665419
 30
0.0
 40
0.0270833
 41
0.0270833
  0
VERTEX
  8
0
 10
0.885906
 20
0.684299
 30
0.0
 40
0.0270833
 41
0.0270833
  0
VERTEX
  8
0
 10
0.816081
 20
0.69081
 30
0.0
 40
0.0270833
 41
0.0270833
  0
VERTEX
  8
0
 10
0.79286
 20
0.69081
 30
0.0
 40
0.0270833
 41
0.0270833
  0
SEQEND
 8
0
  0
POLYLINE
  8
0
 62
     0
 66
     1
 10
0
 20
0
 30
0.0
 70
     1
 40
0
 41
0
  0
VERTEX
  8
0
 10
0.0868599
 20
0.170574
 30
0.0
 40
0
 41
0
  0
VERTEX
  8
0
 10
0.0868599
 20
0.112793
 30
0.0
 40
0
 41
0
  0
VERTEX
  8
0
 10
0.121148
 20
0.112793
 30
0.0
 40
0
 41
0
  0
VERTEX
  8
0
 10
0.127496
 20
0.112793
 30
0.0
 40
0
 41
0
  0
VERTEX
  8
0
 10
0.145182
 20
0.118707
 30
0.0
 40
0
 41
0
  0
VERTEX
  8
0
 10
0.146593
 20
0.119846
 30
0.0
 40
0
 41
0
  0
VERTEX
  8
0
 10
0.147949
 20
0.121094
 30
0.0
 40
0
 41
0
  0
VERTEX
  8
0
 10
0.154949
 20
0.136556
 30
0.0
 40
0
 41
0
  0
VERTEX
  8
0
 10
0.154949
 20
0.14171
 30
0.0
 40
0
 41
0
  0
VERTEX
  8
0
 10
0.154949
 20
0.14719
 30
0.0
 40
0
 41
0
  0
VERTEX
  8
0
 10
0.147949
 20
0.162381
 30
0.0
 40
0
 41
0
  0
VERTEX
  8
0
 10
0.146593
 20
0.163519
 30
0.0
 40
0
 41
0
  0
VERTEX
  8
0
 10
0.145182
 20
0.164714
 30
0.0
 40
0
 41
0
  0
VERTEX
  8
0
 10
0.127116
 20
0.170574
 30
0.0
 40
0
 41
0
  0
VERTEX
  8
0
 10
0.121148
 20
0.170574
 30
0.0
 40
0
 41
0
  0
VERTEX
  8
0
 10
0.0868599
 20
0.170574
 30
0.0
 40
0
 41
0
  0
SEQEND
 8
0
  0
POLYLINE
  8
0
 62
     0
 66
     1
 10
0
 20
0
 30
0.0
 70
     1
 40
0
 41
0
  0
VERTEX
  8
0
 10
0.0868599
 20
0.23546
 30
0.0
 40
0
 41
0
  0
VERTEX
  8
0
 10
0.0868599
 20
0.187989
 30
0.0
 40
0
 41
0
  0
VERTEX
  8
0
 10
0.11849
 20
0.187989
 30
0.0
 40
0
 41
0
  0
VERTEX
  8
0
 10
0.124295
 20
0.187989
 30
0.0
 40
0
 41
0
  0
VERTEX
  8
0
 10
0.140463
 20
0.192817
 30
0.0
 40
0
 41
0
  0
VERTEX
  8
0
 10
0.141764
 20
0.193739
 30
0.0
 40
0
 41
0
  0
VERTEX
  8
0
 10
0.143012
 20
0.194769
 30
0.0
 40
0
 41
0
  0
VERTEX
  8
0
 10
0.149468
 20
0.207519
 30
0.0
 40
0
 41
0
  0
VERTEX
  8
0
 10
0.149468
 20
0.211751
 30
0.0
 40
0
 41
0
  0
VERTEX
  8
0
 10
0.149468
 20
0.2162
 30
0.0
 40
0
 41
0
  0
VERTEX
  8
0
 10
0.143012
 20
0.228569
 30
0.0
 40
0
 41
0
  0
VERTEX
  8
0
 10
0.141764
 20
0.229546
 30
0.0
 40
0
 41
0
  0
VERTEX
  8
0
 10
0.140463
 20
0.230578
 30
0.0
 40
0
 41
0
  0
VERTEX
  8
0
 10
0.123969
 20
0.23546
 30
0.0
 40
0
 41
0
  0
VERTEX
  8
0
 10
0.11849
 20
0.23546
 30
0.0
 40
0
 41
0
  0
VERTEX
  8
0
 10
0.0868599
 20
0.23546
 30
0.0
 40
0
 41
0
  0
SEQEND
 8
0
  0
POLYLINE
  8
0
 62
     0
 66
     1
 10
0
 20
0
 30
0.0
 70
     1
 40
0
 41
0
  0
VERTEX
  8
0
 10
0.0655382
 20
0.253093
 30
0.0
 40
0
 41
0
  0
VERTEX
  8
0
 10
0.120063
 20
0.253093
 30
0.0
 40
0
 41
0
  0
VERTEX
  8
0
 10
0.129449
 20
0.253093
 30
0.0
 40
0
 41
0
  0
VERTEX
  8
0
 10
0.155436
 20
0.244629
 30
0.0
 40
0
 41
0
  0
VERTEX
  8
0
 10
0.157661
 20
0.242893
 30
0.0
 40
0
 41
0
  0
VERTEX
  8
0
 10
0.159831
 20
0.241211
 30
0.0
 40
0
 41
0
  0
VERTEX
  8
0
 10
0.170899
 20
0.220865
 30
0.0
 40
0
 41
0
  0
VERTEX
  8
0
 10
0.170899
 20
0.214031
 30
0.0
 40
0
 41
0
  0
VERTEX
  8
0
 10
0.170899
 20
0.208279
 30
0.0
 40
0
 41
0
  0
VERTEX
  8
0
 10
0.165201
 20
0.192492
 30
0.0
 40
0
 41
0
  0
VERTEX
  8
0
 10
0.164117
 20
0.191026
 30
0.0
 40
0
 41
0
  0
VERTEX
  8
0
 10
0.162978
 20
0.189615
 30
0.0
 40
0
 41
0
  0
VERTEX
  8
0
 10
0.146431
 20
0.180772
 30
0.0
 40
0
 41
0
  0
VERTEX
  8
0
 10
0.14426
 20
0.180393
 30
0.0
 40
0
 41
0
  0
VERTEX
  8
0
 10
0.146864
 20
0.17985
 30
0.0
 40
0
 41
0
  0
VERTEX
  8
0
 10
0.16721
 20
0.168024
 30
0.0
 40
0
 41
0
  0
VERTEX
  8
0
 10
0.168674
 20
0.166233
 30
0.0
 40
0
 41
0
  0
VERTEX
  8
0
 10
0.170139
 20
0.164442
 30
0.0
 40
0
 41
0
  0
VERTEX
  8
0
 10
0.177462
 20
0.145725
 30
0.0
 40
0
 41
0
  0
VERTEX
  8
0
 10
0.177462
 20
0.139432
 30
0.0
 40
0
 41
0
  0
VERTEX
  8
0
 10
0.177462
 20
0.131293
 30
0.0
 40
0
 41
0
  0
VERTEX
  8
0
 10
0.165474
 20
0.10867
 30
0.0
 40
0
 41
0
  0
VERTEX
  8
0
 10
0.163086
 20
0.106717
 30
0.0
 40
0
 41
0
  0
VERTEX
  8
0
 10
0.160644
 20
0.104818
 30
0.0
 40
0
 41
0
  0
VERTEX
  8
0
 10
0.131782
 20
0.0952692
 30
0.0
 40
0
 41
0
  0
VERTEX
  8
0
 10
0.122179
 20
0.0952692
 30
0.0
 40
0
 41
0
  0
VERTEX
  8
0
 10
0.0655382
 20
0.0952692
 30
0.0
 40
0
 41
0
  0
VERTEX
  8
0
 10
0.0655382
 20
0.253093
 30
0.0
 40
0
 41
0
  0
SEQEND
 8
0
  0
POLYLINE
  8
0
 62
     172
 66
     1
 10
0
 20
0
 30
0.0
 40
1.95
 41
1.95
  0
VERTEX
  8
0
 10
0.704101
 20
0.690593
 30
0.0
 40
0.0270833
 41
0.0270833
  0
VERTEX
  8
0
 10
0.717068
 20
0.668186
 30
0.0
 40
0.0270833
 41
0.0270833
  0
VERTEX
  8
0
 10
0.750706
 20
0.597765
 30
0.0
 40
0.0270833
 41
0.0270833
  0
VERTEX
  8
0
 10
0.779514
 20
0.512967
 30
0.0
 40
0.0270833
 41
0.0270833
  0
VERTEX
  8
0
 10
0.794108
 20
0.432454
 30
0.0
 40
0.0270833
 41
0.0270833
  0
VERTEX
  8
0
 10
0.798232
 20
0.372342
 30
0.0
 40
0.0270833
 41
0.0270833
  0
VERTEX
  8
0
 10
0.798232
 20
0.352268
 30
0.0
 40
0.0270833
 41
0.0270833
  0
VERTEX
  8
0
 10
0.798232
 20
0.307671
 30
0.0
 40
0.0270833
 41
0.0270833
  0
VERTEX
  8
0
 10
0.774143
 20
0.173719
 30
0.0
 40
0.0270833
 41
0.0270833
  0
VERTEX
  8
0
 10
0.719401
 20
0.0400933
 30
0.0
 40
0.0270833
 41
0.0270833
  0
VERTEX
  8
0
 10
0.704101
 20
0.0135091
 30
0.0
 40
0.0270833
 41
0.0270833
  0
SEQEND
 8
0
  0
POLYLINE
  8
0
 62
     172
 66
     1
 10
0
 20
0
 30
0.0
 70
     1
 40
1.94782
 41
1.94782
  0
VERTEX
  8
0
 10
1.62494
 20
0.347493
 30
0.0
 40
0.0270531
 41
0.0270531
  0
VERTEX
  8
0
 10
1.62494
 20
0.342285
 30
0.0
 40
0.0270531
 41
0.0270531
  0
VERTEX
  8
0
 10
1.62093
 20
0.326606
 30
0.0
 40
0.0270531
 41
0.0270531
  0
VERTEX
  8
0
 10
1.61051
 20
0.311686
 30
0.0
 40
0.0270531
 41
0.0270531
  0
VERTEX
  8
0
 10
1.59576
 20
0.302681
 30
0.0
 40
0.0270531
 41
0.0270531
  0
VERTEX
  8
0
 10
1.57883
 20
0.299696
 30
0.0
 40
0.0270531
 41
0.0270531
  0
VERTEX
  8
0
 10
1.56185
 20
0.302681
 30
0.0
 40
0.0270531
 41
0.0270531
  0
VERTEX
  8
0
 10
1.5471
 20
0.311686
 30
0.0
 40
0.0270531
 41
0.0270531
  0
VERTEX
  8
0
 10
1.53668
 20
0.326606
 30
0.0
 40
0.0270531
 41
0.0270531
  0
VERTEX
  8
0
 10
1.53271
 20
0.342285
 30
0.0
 40
0.0270531
 41
0.0270531
  0
VERTEX
  8
0
 10
1.53271
 20
0.347493
 30
0.0
 40
0.0270531
 41
0.0270531
  0
VERTEX
  8
0
 10
1.53271
 20
0.352756
 30
0.0
 40
0.0270531
 41
0.0270531
  0
VERTEX
  8
0
 10
1.53668
 20
0.368435
 30
0.0
 40
0.0270531
 41
0.0270531
  0
VERTEX
  8
0
 10
1.5471
 20
0.38341
 30
0.0
 40
0.0270531
 41
0.0270531
  0
VERTEX
  8
0
 10
1.56185
 20
0.392361
 30
0.0
 40
0.0270531
 41
0.0270531
  0
VERTEX
  8
0
 10
1.57883
 20
0.395344
 30
0.0
 40
0.0270531
 41
0.0270531
  0
VERTEX
  8
0
 10
1.59576
 20
0.392361
 30
0.0
 40
0.0270531
 41
0.0270531
  0
VERTEX
  8
0
 10
1.61051
 20
0.38341
 30
0.0
 40
0.0270531
 41
0.0270531
  0
VERTEX
  8
0
 10
1.62093
 20
0.368435
 30
0.0
 40
0.0270531
 41
0.0270531
  0
VERTEX
  8
0
 10
1.62494
 20
0.352756
 30
0.0
 40
0.0270531
 41
0.0270531
  0
VERTEX
  8
0
 10
1.62494
 20
0.347493
 30
0.0
 40
0.0270531
 41
0.0270531
  0
SEQEND
 8
0
  0
POLYLINE
  8
0
 62
     172
 66
     1
 10
0
 20
0
 30
0.0
 40
1.95
 41
1.95
  0
VERTEX
  8
0
 10
4.75211
 20
1.65386
 30
0.0
 40
0.0270833
 41
0.0270833
  0
VERTEX
  8
0
 10
4.7596
 20
1.65386
 30
0.0
 40
0.0270833
 41
0.0270833
  0
VERTEX
  8
0
 10
4.78222
 20
1.65403
 30
0.0
 40
0.0270833
 41
0.0270833
  0
VERTEX
  8
0
 10
4.81392
 20
1.65321
 30
0.0
 40
0.0270833
 41
0.0270833
  0
VERTEX
  8
0
 10
4.8411
 20
1.6499
 30
0.0
 40
0.0270833
 41
0.0270833
  0
VERTEX
  8
0
 10
4.85487
 20
1.64546
 30
0.0
 40
0.0270833
 41
0.0270833
  0
VERTEX
  8
0
 10
4.85775
 20
1.64236
 30
0.0
 40
0.0270833
 41
0.0270833
  0
VERTEX
  8
0
 10
4.86074
 20
1.63917
 30
0.0
 40
0.0270833
 41
0.0270833
  0
VERTEX
  8
0
 10
4.86664
 20
1.62636
 30
0.0
 40
0.0270833
 41
0.0270833
  0
VERTEX
  8
0
 10
4.87489
 20
1.60124
 30
0.0
 40
0.0270833
 41
0.0270833
  0
VERTEX
  8
0
 10
4.88297
 20
1.57124
 30
0.0
 40
0.0270833
 41
0.0270833
  0
VERTEX
  8
0
 10
4.88906
 20
1.54829
 30
0.0
 40
0.0270833
 41
0.0270833
  0
VERTEX
  8
0
 10
4.89128
 20
1.54069
 30
0.0
 40
0.0270833
 41
0.0270833
  0
SEQEND
 8
0
  0
POLYLINE
  8
0
 62
     172
 66
     1
 10
0
 20
0
 30
0.0
 40
1.95
 41
1.95
  0
VERTEX
  8
0
 10
4.93067
 20
1.54081
 30
0.0
 40
0.0270833
 41
0.0270833
  0
VERTEX
  8
0
 10
4.92312
 20
1.54081
 30
0.0
 40
0.0270833
 41
0.0270833
  0
VERTEX
  8
0
 10
4.9005
 20
1.54069
 30
0.0
 40
0.0270833
 41
0.0270833
  0
VERTEX
  8
0
 10
4.86882
 20
1.54144
 30
0.0
 40
0.0270833
 41
0.0270833
  0
VERTEX
  8
0
 10
4.84158
 20
1.54471
 30
0.0
 40
0.0270833
 41
0.0270833
  0
VERTEX
  8
0
 10
4.82781
 20
1.54915
 30
0.0
 40
0.0270833
 41
0.0270833
  0
VERTEX
  8
0
 10
4.82503
 20
1.55219
 30
0.0
 40
0.0270833
 41
0.0270833
  0
VERTEX
  8
0
 10
4.822
 20
1.5555
 30
0.0
 40
0.0270833
 41
0.0270833
  0
VERTEX
  8
0
 10
4.81608
 20
1.56831
 30
0.0
 40
0.0270833
 41
0.0270833
  0
VERTEX
  8
0
 10
4.80783
 20
1.59347
 30
0.0
 40
0.0270833
 41
0.0270833
  0
VERTEX
  8
0
 10
4.79975
 20
1.62349
 30
0.0
 40
0.0270833
 41
0.0270833
  0
VERTEX
  8
0
 10
4.79368
 20
1.64643
 30
0.0
 40
0.0270833
 41
0.0270833
  0
VERTEX
  8
0
 10
4.7915
 20
1.65397
 30
0.0
 40
0.0270833
 41
0.0270833
  0
SEQEND
 8
0
  0
POLYLINE
  8
0
 62
     0
 66
     1
 10
0
 20
0
 30
0.0
 40
1.94782
 41
1.94782
  0
VERTEX
  8
0
 10
4.46419
 20
1.77121
 30
0.0
 40
0.0270531
 41
0.0270531
  0
VERTEX
  8
0
 10
3.94243
 20
1.77121
 30
0.0
 40
0.0270531
 41
0.0270531
  0
SEQEND
 8
0
  0
POLYLINE
  8
0
 62
     0
 66
     1
 10
0
 20
0
 30
0.0
 40
1.94782
 41
1.94782
  0
VERTEX
  8
0
 10
4.46419
 20
1.41374
 30
0.0
 40
0.0270531
 41
0.0270531
  0
VERTEX
  8
0
 10
3.94243
 20
1.41374
 30
0.0
 40
0.0270531
 41
0.0270531
  0
SEQEND
 8
0
  0
POLYLINE
  8
0
 62
     0
 66
     1
 10
0
 20
0
 30
0.0
 70
     1
 40
0
 41
0
  0
VERTEX
  8
0
 10
3.80149
 20
1.82915
 30
0.0
 40
0
 41
0
  0
VERTEX
  8
0
 10
3.77251
 20
1.7506
 30
0.0
 40
0
 41
0
  0
VERTEX
  8
0
 10
3.83057
 20
1.7506
 30
0.0
 40
0
 41
0
  0
VERTEX
  8
0
 10
3.80149
 20
1.82915
 30
0.0
 40
0
 41
0
  0
SEQEND
 8
0
  0
POLYLINE
  8
0
 62
     0
 66
     1
 10
0
 20
0
 30
0.0
 70
     1
 40
0
 41
0
  0
VERTEX
  8
0
 10
3.78939
 20
1.85004
 30
0.0
 40
0
 41
0
  0
VERTEX
  8
0
 10
3.81358
 20
1.85004
 30
0.0
 40
0
 41
0
  0
VERTEX
  8
0
 10
3.87375
 20
1.69239
 30
0.0
 40
0
 41
0
  0
VERTEX
  8
0
 10
3.85157
 20
1.69239
 30
0.0
 40
0
 41
0
  0
VERTEX
  8
0
 10
3.83718
 20
1.73281
 30
0.0
 40
0
 41
0
  0
VERTEX
  8
0
 10
3.76606
 20
1.73281
 30
0.0
 40
0
 41
0
  0
VERTEX
  8
0
 10
3.75168
 20
1.69239
 30
0.0
 40
0
 41
0
  0
VERTEX
  8
0
 10
3.72917
 20
1.69239
 30
0.0
 40
0
 41
0
  0
VERTEX
  8
0
 10
3.78939
 20
1.85004
 30
0.0
 40
0
 41
0
  0
SEQEND
 8
0
  0
POLYLINE
  8
0
 62
     172
 66
     1
 10
0
 20
0
 30
0.0
 70
     1
 40
1.94782
 41
1.94782
  0
VERTEX
  8
0
 10
4.46013
 20
1.91124
 30
0.0
 40
0.0270531
 41
0.0270531
  0
VERTEX
  8
0
 10
4.50353
 20
1.91092
 30
0.0
 40
0.0270531
 41
0.0270531
  0
VERTEX
  8
0
 10
4.93788
 20
1.90701
 30
0.0
 40
0.0270531
 41
0.0270531
  0
VERTEX
  8
0
 10
4.98128
 20
1.90414
 30
0.0
 40
0.0270531
 41
0.0270531
  0
VERTEX
  8
0
 10
4.99354
 20
1.90213
 30
0.0
 40
0.0270531
 41
0.0270531
  0
VERTEX
  8
0
 10
5.03006
 20
1.89328
 30
0.0
 40
0.0270531
 41
0.0270531
  0
VERTEX
  8
0
 10
5.06793
 20
1.87815
 30
0.0
 40
0.0270531
 41
0.0270531
  0
VERTEX
  8
0
 10
5.10004
 20
1.85747
 30
0.0
 40
0.0270531
 41
0.0270531
  0
VERTEX
  8
0
 10
5.12414
 20
1.83724
 30
0.0
 40
0.0270531
 41
0.0270531
  0
VERTEX
  8
0
 10
5.13178
 20
1.83008
 30
0.0
 40
0.0270531
 41
0.0270531
  0
VERTEX
  8
0
 10
5.14492
 20
1.81728
 30
0.0
 40
0.0270531
 41
0.0270531
  0
VERTEX
  8
0
 10
5.17719
 20
1.77132
 30
0.0
 40
0.0270531
 41
0.0270531
  0
VERTEX
  8
0
 10
5.20649
 20
1.70281
 30
0.0
 40
0.0270531
 41
0.0270531
  0
VERTEX
  8
0
 10
5.22076
 20
1.62944
 30
0.0
 40
0.0270531
 41
0.0270531
  0
VERTEX
  8
0
 10
5.22265
 20
1.57422
 30
0.0
 40
0.0270531
 41
0.0270531
  0
VERTEX
  8
0
 10
5.22108
 20
1.55599
 30
0.0
 40
0.0270531
 41
0.0270531
  0
VERTEX
  8
0
 10
5.22011
 20
1.54178
 30
0.0
 40
0.0270531
 41
0.0270531
  0
VERTEX
  8
0
 10
5.21158
 20
1.49946
 30
0.0
 40
0.0270531
 41
0.0270531
  0
VERTEX
  8
0
 10
5.19081
 20
1.44385
 30
0.0
 40
0.0270531
 41
0.0270531
  0
VERTEX
  8
0
 10
5.15896
 20
1.39296
 30
0.0
 40
0.0270531
 41
0.0270531
  0
VERTEX
  8
0
 10
5.1281
 20
1.3597
 30
0.0
 40
0.0270531
 41
0.0270531
  0
VERTEX
  8
0
 10
5.11626
 20
1.35059
 30
0.0
 40
0.0270531
 41
0.0270531
  0
VERTEX
  8
0
 10
5.10682
 20
1.34348
 30
0.0
 40
0.0270531
 41
0.0270531
  0
VERTEX
  8
0
 10
5.05485
 20
1.31559
 30
0.0
 40
0.0270531
 41
0.0270531
  0
VERTEX
  8
0
 10
4.99365
 20
1.29704
 30
0.0
 40
0.0270531
 41
0.0270531
  0
VERTEX
  8
0
 10
4.97971
 20
1.29454
 30
0.0
 40
0.0270531
 41
0.0270531
  0
VERTEX
  8
0
 10
4.95356
 20
1.29112
 30
0.0
 40
0.0270531
 41
0.0270531
  0
VERTEX
  8
0
 10
4.8221
 20
1.28521
 30
0.0
 40
0.0270531
 41
0.0270531
  0
VERTEX
  8
0
 10
4.69038
 20
1.28527
 30
0.0
 40
0.0270531
 41
0.0270531
  0
VERTEX
  8
0
 10
4.66407
 20
1.28478
 30
0.0
 40
0.0270531
 41
0.0270531
  0
VERTEX
  8
0
 10
4.61307
 20
1.28478
 30
0.0
 40
0.0270531
 41
0.0270531
  0
VERTEX
  8
0
 10
4.47711
 20
1.28364
 30
0.0
 40
0.0270531
 41
0.0270531
  0
VERTEX
  8
0
 10
4.46013
 20
1.2832
 30
0.0
 40
0.0270531
 41
0.0270531
  0
VERTEX
  8
0
 10
4.46013
 20
1.91124
 30
0.0
 40
0.0270531
 41
0.0270531
  0
SEQEND
 8
0
  0
POLYLINE
  8
0
 62
     0
 66
     1
 10
0
 20
0
 30
0.0
 40
1.94782
 41
1.94782
  0
VERTEX
  8
0
 10
5.84347
 20
1.60069
 30
0.0
 40
0.0270531
 41
0.0270531
  0
VERTEX
  8
0
 10
5.32167
 20
1.60069
 30
0.0
 40
0.0270531
 41
0.0270531
  0
SEQEND
 8
0
  0
POLYLINE
  8
0
 62
     0
 66
     1
 10
0
 20
0
 30
0.0
 70
     1
 40
0
 41
0
  0
VERTEX
  8
0
 10
5.91542
 20
1.68099
 30
0.0
 40
0
 41
0
  0
VERTEX
  8
0
 10
5.93847
 20
1.68099
 30
0.0
 40
0
 41
0
  0
VERTEX
  8
0
 10
5.98221
 20
1.6161
 30
0.0
 40
0
 41
0
  0
VERTEX
  8
0
 10
6.02556
 20
1.68099
 30
0.0
 40
0
 41
0
  0
VERTEX
  8
0
 10
6.04856
 20
1.68099
 30
0.0
 40
0
 41
0
  0
VERTEX
  8
0
 10
5.99274
 20
1.59842
 30
0.0
 40
0
 41
0
  0
VERTEX
  8
0
 10
5.99274
 20
1.52328
 30
0.0
 40
0
 41
0
  0
VERTEX
  8
0
 10
5.97125
 20
1.52328
 30
0.0
 40
0
 41
0
  0
VERTEX
  8
0
 10
5.97125
 20
1.59842
 30
0.0
 40
0
 41
0
  0
VERTEX
  8
0
 10
5.91542
 20
1.68099
 30
0.0
 40
0
 41
0
  0
SEQEND
 8
0
  0
POLYLINE
  8
0
 62
     172
 66
     1
 10
0
 20
0
 30
0.0
 70
     1
 40
1.94782
 41
1.94782
  0
VERTEX
  8
0
 10
5.32726
 20
1.59711
 30
0.0
 40
0.0270531
 41
0.0270531
  0
VERTEX
  8
0
 10
5.32726
 20
1.60238
 30
0.0
 40
0.0270531
 41
0.0270531
  0
VERTEX
  8
0
 10
5.32324
 20
1.61806
 30
0.0
 40
0.0270531
 41
0.0270531
  0
VERTEX
  8
0
 10
5.31282
 20
1.63297
 30
0.0
 40
0.0270531
 41
0.0270531
  0
VERTEX
  8
0
 10
5.29801
 20
1.64199
 30
0.0
 40
0.0270531
 41
0.0270531
  0
VERTEX
  8
0
 10
5.28108
 20
1.64497
 30
0.0
 40
0.0270531
 41
0.0270531
  0
VERTEX
  8
0
 10
5.26417
 20
1.64199
 30
0.0
 40
0.0270531
 41
0.0270531
  0
VERTEX
  8
0
 10
5.24935
 20
1.63297
 30
0.0
 40
0.0270531
 41
0.0270531
  0
VERTEX
  8
0
 10
5.23893
 20
1.61806
 30
0.0
 40
0.0270531
 41
0.0270531
  0
VERTEX
  8
0
 10
5.23497
 20
1.60238
 30
0.0
 40
0.0270531
 41
0.0270531
  0
VERTEX
  8
0
 10
5.23497
 20
1.59711
 30
0.0
 40
0.0270531
 41
0.0270531
  0
VERTEX
  8
0
 10
5.23497
 20
1.5919
 30
0.0
 40
0.0270531
 41
0.0270531
  0
VERTEX
  8
0
 10
5.23893
 20
1.57622
 30
0.0
 40
0.0270531
 41
0.0270531
  0
VERTEX
  8
0
 10
5.24935
 20
1.56125
 30
0.0
 40
0.0270531
 41
0.0270531
  0
VERTEX
  8
0
 10
5.26417
 20
1.55231
 30
0.0
 40
0.0270531
 41
0.0270531
  0
VERTEX
  8
0
 10
5.28108
 20
1.54926
 30
0.0
 40
0.0270531
 41
0.0270531
  0
VERTEX
  8
0
 10
5.29801
 20
1.55231
 30
0.0
 40
0.0270531
 41
0.0270531
  0
VERTEX
  8
0
 10
5.31282
 20
1.56125
 30
0.0
 40
0.0270531
 41
0.0270531
  0
VERTEX
  8
0
 10
5.32324
 20
1.57622
 30
0.0
 40
0.0270531
 41
0.0270531
  0
VERTEX
  8
0
 10
5.32726
 20
1.5919
 30
0.0
 40
0.0270531
 41
0.0270531
  0
VERTEX
  8
0
 10
5.32726
 20
1.59711
 30
0.0
 40
0.0270531
 41
0.0270531
  0
SEQEND
 8
0
  0
POLYLINE
  8
0
 62
     0
 66
     1
 10
0
 20
0
 30
0.0
 70
     1
 40
0
 41
0
  0
VERTEX
  8
0
 10
3.7749
 20
1.41015
 30
0.0
 40
0
 41
0
  0
VERTEX
  8
0
 10
3.7749
 20
1.35238
 30
0.0
 40
0
 41
0
  0
VERTEX
  8
0
 10
3.80919
 20
1.35238
 30
0.0
 40
0
 41
0
  0
VERTEX
  8
0
 10
3.81554
 20
1.35238
 30
0.0
 40
0
 41
0
  0
VERTEX
  8
0
 10
3.83317
 20
1.35829
 30
0.0
 40
0
 41
0
  0
VERTEX
  8
0
 10
3.83458
 20
1.35943
 30
0.0
 40
0
 41
0
  0
VERTEX
  8
0
 10
3.83599
 20
1.36068
 30
0.0
 40
0
 41
0
  0
VERTEX
  8
0
 10
3.84293
 20
1.37614
 30
0.0
 40
0
 41
0
  0
VERTEX
  8
0
 10
3.84293
 20
1.38129
 30
0.0
 40
0
 41
0
  0
VERTEX
  8
0
 10
3.84293
 20
1.38677
 30
0.0
 40
0
 41
0
  0
VERTEX
  8
0
 10
3.83599
 20
1.40196
 30
0.0
 40
0
 41
0
  0
VERTEX
  8
0
 10
3.83458
 20
1.4031
 30
0.0
 40
0
 41
0
  0
VERTEX
  8
0
 10
3.83317
 20
1.40429
 30
0.0
 40
0
 41
0
  0
VERTEX
  8
0
 10
3.81515
 20
1.41015
 30
0.0
 40
0
 41
0
  0
VERTEX
  8
0
 10
3.80919
 20
1.41015
 30
0.0
 40
0
 41
0
  0
VERTEX
  8
0
 10
3.7749
 20
1.41015
 30
0.0
 40
0
 41
0
  0
SEQEND
 8
0
  0
POLYLINE
  8
0
 62
     0
 66
     1
 10
0
 20
0
 30
0.0
 70
     1
 40
0
 41
0
  0
VERTEX
  8
0
 10
3.7749
 20
1.47504
 30
0.0
 40
0
 41
0
  0
VERTEX
  8
0
 10
3.7749
 20
1.42757
 30
0.0
 40
0
 41
0
  0
VERTEX
  8
0
 10
3.80647
 20
1.42757
 30
0.0
 40
0
 41
0
  0
VERTEX
  8
0
 10
3.81228
 20
1.42757
 30
0.0
 40
0
 41
0
  0
VERTEX
  8
0
 10
3.82844
 20
1.4324
 30
0.0
 40
0
 41
0
  0
VERTEX
  8
0
 10
3.82969
 20
1.43332
 30
0.0
 40
0
 41
0
  0
VERTEX
  8
0
 10
3.831
 20
1.43435
 30
0.0
 40
0
 41
0
  0
VERTEX
  8
0
 10
3.8374
 20
1.4471
 30
0.0
 40
0
 41
0
  0
VERTEX
  8
0
 10
3.8374
 20
1.45133
 30
0.0
 40
0
 41
0
  0
VERTEX
  8
0
 10
3.8374
 20
1.45578
 30
0.0
 40
0
 41
0
  0
VERTEX
  8
0
 10
3.831
 20
1.46815
 30
0.0
 40
0
 41
0
  0
VERTEX
  8
0
 10
3.82969
 20
1.46913
 30
0.0
 40
0
 41
0
  0
VERTEX
  8
0
 10
3.82844
 20
1.47017
 30
0.0
 40
0
 41
0
  0
VERTEX
  8
0
 10
3.81196
 20
1.47504
 30
0.0
 40
0
 41
0
  0
VERTEX
  8
0
 10
3.80647
 20
1.47504
 30
0.0
 40
0
 41
0
  0
VERTEX
  8
0
 10
3.7749
 20
1.47504
 30
0.0
 40
0
 41
0
  0
SEQEND
 8
0
  0
POLYLINE
  8
0
 62
     0
 66
     1
 10
0
 20
0
 30
0.0
 70
     1
 40
0
 41
0
  0
VERTEX
  8
0
 10
3.75358
 20
1.49268
 30
0.0
 40
0
 41
0
  0
VERTEX
  8
0
 10
3.80806
 20
1.49268
 30
0.0
 40
0
 41
0
  0
VERTEX
  8
0
 10
3.81743
 20
1.49268
 30
0.0
 40
0
 41
0
  0
VERTEX
  8
0
 10
3.84353
 20
1.48421
 30
0.0
 40
0
 41
0
  0
VERTEX
  8
0
 10
3.84576
 20
1.48247
 30
0.0
 40
0
 41
0
  0
VERTEX
  8
0
 10
3.84793
 20
1.48079
 30
0.0
 40
0
 41
0
  0
VERTEX
  8
0
 10
3.85889
 20
1.46044
 30
0.0
 40
0
 41
0
  0
VERTEX
  8
0
 10
3.85889
 20
1.45361
 30
0.0
 40
0
 41
0
  0
VERTEX
  8
0
 10
3.85889
 20
1.44786
 30
0.0
 40
0
 41
0
  0
VERTEX
  8
0
 10
3.85325
 20
1.43207
 30
0.0
 40
0
 41
0
  0
VERTEX
  8
0
 10
3.85211
 20
1.43061
 30
0.0
 40
0
 41
0
  0
VERTEX
  8
0
 10
3.85097
 20
1.42919
 30
0.0
 40
0
 41
0
  0
VERTEX
  8
0
 10
3.83447
 20
1.42036
 30
0.0
 40
0
 41
0
  0
VERTEX
  8
0
 10
3.83231
 20
1.41997
 30
0.0
 40
0
 41
0
  0
VERTEX
  8
0
 10
3.8349
 20
1.41943
 30
0.0
 40
0
 41
0
  0
VERTEX
  8
0
 10
3.85519
 20
1.40761
 30
0.0
 40
0
 41
0
  0
VERTEX
  8
0
 10
3.85667
 20
1.40582
 30
0.0
 40
0
 41
0
  0
VERTEX
  8
0
 10
3.85813
 20
1.40403
 30
0.0
 40
0
 41
0
  0
VERTEX
  8
0
 10
3.86546
 20
1.38531
 30
0.0
 40
0
 41
0
  0
VERTEX
  8
0
 10
3.86546
 20
1.37902
 30
0.0
 40
0
 41
0
  0
VERTEX
  8
0
 10
3.86546
 20
1.37088
 30
0.0
 40
0
 41
0
  0
VERTEX
  8
0
 10
3.85346
 20
1.34825
 30
0.0
 40
0
 41
0
  0
VERTEX
  8
0
 10
3.85107
 20
1.3463
 30
0.0
 40
0
 41
0
  0
VERTEX
  8
0
 10
3.84864
 20
1.3444
 30
0.0
 40
0
 41
0
  0
VERTEX
  8
0
 10
3.81982
 20
1.33485
 30
0.0
 40
0
 41
0
  0
VERTEX
  8
0
 10
3.81022
 20
1.33485
 30
0.0
 40
0
 41
0
  0
VERTEX
  8
0
 10
3.75358
 20
1.33485
 30
0.0
 40
0
 41
0
  0
VERTEX
  8
0
 10
3.75358
 20
1.49268
 30
0.0
 40
0
 41
0
  0
SEQEND
 8
0
  0
POLYLINE
  8
0
 62
     0
 66
     1
 10
0
 20
0
 30
0.0
 70
     1
 40
0
 41
0
  0
VERTEX
  8
0
 10
3.77046
 20
3.63124
 30
0.0
 40
0
 41
0
  0
VERTEX
  8
0
 10
3.74149
 20
3.55268
 30
0.0
 40
0
 41
0
  0
VERTEX
  8
0
 10
3.79949
 20
3.55268
 30
0.0
 40
0
 41
0
  0
VERTEX
  8
0
 10
3.77046
 20
3.63124
 30
0.0
 40
0
 41
0
  0
SEQEND
 8
0
  0
POLYLINE
  8
0
 62
     0
 66
     1
 10
0
 20
0
 30
0.0
 70
     1
 40
0
 41
0
  0
VERTEX
  8
0
 10
3.75836
 20
3.65213
 30
0.0
 40
0
 41
0
  0
VERTEX
  8
0
 10
3.78261
 20
3.65213
 30
0.0
 40
0
 41
0
  0
VERTEX
  8
0
 10
3.84272
 20
3.49447
 30
0.0
 40
0
 41
0
  0
VERTEX
  8
0
 10
3.82053
 20
3.49447
 30
0.0
 40
0
 41
0
  0
VERTEX
  8
0
 10
3.80615
 20
3.53489
 30
0.0
 40
0
 41
0
  0
VERTEX
  8
0
 10
3.73503
 20
3.53489
 30
0.0
 40
0
 41
0
  0
VERTEX
  8
0
 10
3.72065
 20
3.49447
 30
0.0
 40
0
 41
0
  0
VERTEX
  8
0
 10
3.69814
 20
3.49447
 30
0.0
 40
0
 41
0
  0
VERTEX
  8
0
 10
3.75836
 20
3.65213
 30
0.0
 40
0
 41
0
  0
SEQEND
 8
0
  0
POLYLINE
  8
0
 62
     0
 66
     1
 10
0
 20
0
 30
0.0
 40
1.94782
 41
1.94782
  0
VERTEX
  8
0
 10
5.56554
 20
3.57465
 30
0.0
 40
0.0270531
 41
0.0270531
  0
VERTEX
  8
0
 10
5.04378
 20
3.57465
 30
0.0
 40
0.0270531
 41
0.0270531
  0
SEQEND
 8
0
  0
POLYLINE
  8
0
 62
     0
 66
     1
 10
0
 20
0
 30
0.0
 70
     1
 40
0
 41
0
  0
VERTEX
  8
0
 10
5.63574
 20
3.66114
 30
0.0
 40
0
 41
0
  0
VERTEX
  8
0
 10
5.65869
 20
3.66114
 30
0.0
 40
0
 41
0
  0
VERTEX
  8
0
 10
5.70242
 20
3.59619
 30
0.0
 40
0
 41
0
  0
VERTEX
  8
0
 10
5.74588
 20
3.66114
 30
0.0
 40
0
 41
0
  0
VERTEX
  8
0
 10
5.76878
 20
3.66114
 30
0.0
 40
0
 41
0
  0
VERTEX
  8
0
 10
5.71294
 20
3.5785
 30
0.0
 40
0
 41
0
  0
VERTEX
  8
0
 10
5.71294
 20
3.50331
 30
0.0
 40
0
 41
0
  0
VERTEX
  8
0
 10
5.69157
 20
3.50331
 30
0.0
 40
0
 41
0
  0
VERTEX
  8
0
 10
5.69157
 20
3.5785
 30
0.0
 40
0
 41
0
  0
VERTEX
  8
0
 10
5.63574
 20
3.66114
 30
0.0
 40
0
 41
0
  0
SEQEND
 8
0
  0
POLYLINE
  8
0
 62
     0
 66
     1
 10
0
 20
0
 30
0.0
 40
1.94782
 41
1.94782
  0
VERTEX
  8
0
 10
4.43137
 20
3.57465
 30
0.0
 40
0.0270531
 41
0.0270531
  0
VERTEX
  8
0
 10
3.90961
 20
3.57465
 30
0.0
 40
0.0270531
 41
0.0270531
  0
SEQEND
 8
0
  0
POLYLINE
  8
0
 62
     172
 66
     1
 10
0
 20
0
 30
0.0
 70
     1
 40
1.95
 41
1.95
  0
VERTEX
  8
0
 10
5.05214
 20
3.57374
 30
0.0
 40
0.0270833
 41
0.0270833
  0
VERTEX
  8
0
 10
4.52914
 20
3.27175
 30
0.0
 40
0.0270833
 41
0.0270833
  0
VERTEX
  8
0
 10
4.52914
 20
3.87571
 30
0.0
 40
0.0270833
 41
0.0270833
  0
VERTEX
  8
0
 10
5.05214
 20
3.57374
 30
0.0
 40
0.0270833
 41
0.0270833
  0
SEQEND
 8
0
  0
POLYLINE
  8
0
 62
     172
 66
     1
 10
0
 20
0
 30
0.0
 70
     1
 40
1.94782
 41
1.94782
  0
VERTEX
  8
0
 10
4.52713
 20
3.57667
 30
0.0
 40
0.0270531
 41
0.0270531
  0
VERTEX
  8
0
 10
4.52713
 20
3.57146
 30
0.0
 40
0.0270531
 41
0.0270531
  0
VERTEX
  8
0
 10
4.52311
 20
3.55578
 30
0.0
 40
0.0270531
 41
0.0270531
  0
VERTEX
  8
0
 10
4.51269
 20
3.54085
 30
0.0
 40
0.0270531
 41
0.0270531
  0
VERTEX
  8
0
 10
4.49794
 20
3.53185
 30
0.0
 40
0.0270531
 41
0.0270531
  0
VERTEX
  8
0
 10
4.48101
 20
3.52886
 30
0.0
 40
0.0270531
 41
0.0270531
  0
VERTEX
  8
0
 10
4.46403
 20
3.53185
 30
0.0
 40
0.0270531
 41
0.0270531
  0
VERTEX
  8
0
 10
4.44928
 20
3.54085
 30
0.0
 40
0.0270531
 41
0.0270531
  0
VERTEX
  8
0
 10
4.43886
 20
3.55578
 30
0.0
 40
0.0270531
 41
0.0270531
  0
VERTEX
  8
0
 10
4.4349
 20
3.57146
 30
0.0
 40
0.0270531
 41
0.0270531
  0
VERTEX
  8
0
 10
4.4349
 20
3.57667
 30
0.0
 40
0.0270531
 41
0.0270531
  0
VERTEX
  8
0
 10
4.4349
 20
3.58192
 30
0.0
 40
0.0270531
 41
0.0270531
  0
VERTEX
  8
0
 10
4.43886
 20
3.5976
 30
0.0
 40
0.0270531
 41
0.0270531
  0
VERTEX
  8
0
 10
4.44928
 20
3.61257
 30
0.0
 40
0.0270531
 41
0.0270531
  0
VERTEX
  8
0
 10
4.46403
 20
3.62153
 30
0.0
 40
0.0270531
 41
0.0270531
  0
VERTEX
  8
0
 10
4.48101
 20
3.62451
 30
0.0
 40
0.0270531
 41
0.0270531
  0
VERTEX
  8
0
 10
4.49794
 20
3.62153
 30
0.0
 40
0.0270531
 41
0.0270531
  0
VERTEX
  8
0
 10
4.51269
 20
3.61257
 30
0.0
 40
0.0270531
 41
0.0270531
  0
VERTEX
  8
0
 10
4.52311
 20
3.5976
 30
0.0
 40
0.0270531
 41
0.0270531
  0
VERTEX
  8
0
 10
4.52713
 20
3.58192
 30
0.0
 40
0.0270531
 41
0.0270531
  0
VERTEX
  8
0
 10
4.52713
 20
3.57667
 30
0.0
 40
0.0270531
 41
0.0270531
  0
SEQEND
 8
0
  0
POLYLINE
  8
0
 62
     0
 66
     1
 10
0
 20
0
 30
0.0
 70
     1
 40
0
 41
0
  0
VERTEX
  8
0
 10
3.79129
 20
2.68425
 30
0.0
 40
0
 41
0
  0
VERTEX
  8
0
 10
3.76232
 20
2.60579
 30
0.0
 40
0
 41
0
  0
VERTEX
  8
0
 10
3.82032
 20
2.60579
 30
0.0
 40
0
 41
0
  0
VERTEX
  8
0
 10
3.79129
 20
2.68425
 30
0.0
 40
0
 41
0
  0
SEQEND
 8
0
  0
POLYLINE
  8
0
 62
     0
 66
     1
 10
0
 20
0
 30
0.0
 70
     1
 40
0
 41
0
  0
VERTEX
  8
0
 10
3.77919
 20
2.70529
 30
0.0
 40
0
 41
0
  0
VERTEX
  8
0
 10
3.80344
 20
2.70529
 30
0.0
 40
0
 41
0
  0
VERTEX
  8
0
 10
3.86356
 20
2.54758
 30
0.0
 40
0
 41
0
  0
VERTEX
  8
0
 10
3.84136
 20
2.54758
 30
0.0
 40
0
 41
0
  0
VERTEX
  8
0
 10
3.82699
 20
2.588
 30
0.0
 40
0
 41
0
  0
VERTEX
  8
0
 10
3.75586
 20
2.588
 30
0.0
 40
0
 41
0
  0
VERTEX
  8
0
 10
3.74149
 20
2.54758
 30
0.0
 40
0
 41
0
  0
VERTEX
  8
0
 10
3.71897
 20
2.54758
 30
0.0
 40
0
 41
0
  0
VERTEX
  8
0
 10
3.77919
 20
2.70529
 30
0.0
 40
0
 41
0
  0
SEQEND
 8
0
  0
POLYLINE
  8
0
 62
     0
 66
     1
 10
0
 20
0
 30
0.0
 40
1.94782
 41
1.94782
  0
VERTEX
  8
0
 10
5.58453
 20
2.63385
 30
0.0
 40
0.0270531
 41
0.0270531
  0
VERTEX
  8
0
 10
5.06282
 20
2.63385
 30
0.0
 40
0.0270531
 41
0.0270531
  0
SEQEND
 8
0
  0
POLYLINE
  8
0
 62
     0
 66
     1
 10
0
 20
0
 30
0.0
 70
     1
 40
0
 41
0
  0
VERTEX
  8
0
 10
5.65657
 20
2.71425
 30
0.0
 40
0
 41
0
  0
VERTEX
  8
0
 10
5.67953
 20
2.71425
 30
0.0
 40
0
 41
0
  0
VERTEX
  8
0
 10
5.72325
 20
2.64936
 30
0.0
 40
0
 41
0
  0
VERTEX
  8
0
 10
5.76671
 20
2.71425
 30
0.0
 40
0
 41
0
  0
VERTEX
  8
0
 10
5.78961
 20
2.71425
 30
0.0
 40
0
 41
0
  0
VERTEX
  8
0
 10
5.73389
 20
2.63151
 30
0.0
 40
0
 41
0
  0
VERTEX
  8
0
 10
5.73389
 20
2.55643
 30
0.0
 40
0
 41
0
  0
VERTEX
  8
0
 10
5.7124
 20
2.55643
 30
0.0
 40
0
 41
0
  0
VERTEX
  8
0
 10
5.7124
 20
2.63151
 30
0.0
 40
0
 41
0
  0
VERTEX
  8
0
 10
5.65657
 20
2.71425
 30
0.0
 40
0
 41
0
  0
SEQEND
 8
0
  0
POLYLINE
  8
0
 62
     0
 66
     1
 10
0
 20
0
 30
0.0
 40
1.94782
 41
1.94782
  0
VERTEX
  8
0
 10
4.45221
 20
2.62776
 30
0.0
 40
0.0270531
 41
0.0270531
  0
VERTEX
  8
0
 10
3.93044
 20
2.62776
 30
0.0
 40
0.0270531
 41
0.0270531
  0
SEQEND
 8
0
  0
POLYLINE
  8
0
 62
     172
 66
     1
 10
0
 20
0
 30
0.0
 70
     1
 40
1.95
 41
1.95
  0
VERTEX
  8
0
 10
4.96778
 20
2.62685
 30
0.0
 40
0.0270833
 41
0.0270833
  0
VERTEX
  8
0
 10
4.44472
 20
2.32488
 30
0.0
 40
0.0270833
 41
0.0270833
  0
VERTEX
  8
0
 10
4.44472
 20
2.92882
 30
0.0
 40
0.0270833
 41
0.0270833
  0
VERTEX
  8
0
 10
4.96778
 20
2.62685
 30
0.0
 40
0.0270833
 41
0.0270833
  0
SEQEND
 8
0
  0
POLYLINE
  8
0
 62
     172
 66
     1
 10
0
 20
0
 30
0.0
 70
     1
 40
1.94782
 41
1.94782
  0
VERTEX
  8
0
 10
5.06369
 20
2.62983
 30
0.0
 40
0.0270531
 41
0.0270531
  0
VERTEX
  8
0
 10
5.06369
 20
2.62463
 30
0.0
 40
0.0270531
 41
0.0270531
  0
VERTEX
  8
0
 10
5.05968
 20
2.60894
 30
0.0
 40
0.0270531
 41
0.0270531
  0
VERTEX
  8
0
 10
5.04926
 20
2.59397
 30
0.0
 40
0.0270531
 41
0.0270531
  0
VERTEX
  8
0
 10
5.0345
 20
2.58501
 30
0.0
 40
0.0270531
 41
0.0270531
  0
VERTEX
  8
0
 10
5.01758
 20
2.58197
 30
0.0
 40
0.0270531
 41
0.0270531
  0
VERTEX
  8
0
 10
5.0006
 20
2.58501
 30
0.0
 40
0.0270531
 41
0.0270531
  0
VERTEX
  8
0
 10
4.98583
 20
2.59397
 30
0.0
 40
0.0270531
 41
0.0270531
  0
VERTEX
  8
0
 10
4.97542
 20
2.60894
 30
0.0
 40
0.0270531
 41
0.0270531
  0
VERTEX
  8
0
 10
4.97146
 20
2.62463
 30
0.0
 40
0.0270531
 41
0.0270531
  0
VERTEX
  8
0
 10
4.97146
 20
2.62983
 30
0.0
 40
0.0270531
 41
0.0270531
  0
VERTEX
  8
0
 10
4.97146
 20
2.6351
 30
0.0
 40
0.0270531
 41
0.0270531
  0
VERTEX
  8
0
 10
4.97542
 20
2.65076
 30
0.0
 40
0.0270531
 41
0.0270531
  0
VERTEX
  8
0
 10
4.98583
 20
2.66569
 30
0.0
 40
0.0270531
 41
0.0270531
  0
VERTEX
  8
0
 10
5.0006
 20
2.67469
 30
0.0
 40
0.0270531
 41
0.0270531
  0
VERTEX
  8
0
 10
5.01758
 20
2.67768
 30
0.0
 40
0.0270531
 41
0.0270531
  0
VERTEX
  8
0
 10
5.0345
 20
2.67469
 30
0.0
 40
0.0270531
 41
0.0270531
  0
VERTEX
  8
0
 10
5.04926
 20
2.66569
 30
0.0
 40
0.0270531
 41
0.0270531
  0
VERTEX
  8
0
 10
5.05968
 20
2.65076
 30
0.0
 40
0.0270531
 41
0.0270531
  0
VERTEX
  8
0
 10
5.06369
 20
2.6351
 30
0.0
 40
0.0270531
 41
0.0270531
  0
VERTEX
  8
0
 10
5.06369
 20
2.62983
 30
0.0
 40
0.0270531
 41
0.0270531
  0
SEQEND
 8
0
  0
POLYLINE
  8
0
 62
     172
 66
     1
 10
0
 20
0
 30
0.0
 40
1.95
 41
1.95
  0
VERTEX
  8
0
 10
4.55447
 20
2.68338
 30
0.0
 40
0.0270833
 41
0.0270833
  0
VERTEX
  8
0
 10
4.56196
 20
2.68338
 30
0.0
 40
0.0270833
 41
0.0270833
  0
VERTEX
  8
0
 10
4.58458
 20
2.68354
 30
0.0
 40
0.0270833
 41
0.0270833
  0
VERTEX
  8
0
 10
4.61626
 20
2.68272
 30
0.0
 40
0.0270833
 41
0.0270833
  0
VERTEX
  8
0
 10
4.64344
 20
2.67947
 30
0.0
 40
0.0270833
 41
0.0270833
  0
VERTEX
  8
0
 10
4.65722
 20
2.67503
 30
0.0
 40
0.0270833
 41
0.0270833
  0
VERTEX
  8
0
 10
4.6601
 20
2.67193
 30
0.0
 40
0.0270833
 41
0.0270833
  0
VERTEX
  8
0
 10
4.66308
 20
2.66868
 30
0.0
 40
0.0270833
 41
0.0270833
  0
VERTEX
  8
0
 10
4.669
 20
2.65593
 30
0.0
 40
0.0270833
 41
0.0270833
  0
VERTEX
  8
0
 10
4.67725
 20
2.63075
 30
0.0
 40
0.0270833
 41
0.0270833
  0
VERTEX
  8
0
 10
4.68533
 20
2.60081
 30
0.0
 40
0.0270833
 41
0.0270833
  0
VERTEX
  8
0
 10
4.6914
 20
2.57785
 30
0.0
 40
0.0270833
 41
0.0270833
  0
VERTEX
  8
0
 10
4.69363
 20
2.57026
 30
0.0
 40
0.0270833
 41
0.0270833
  0
SEQEND
 8
0
  0
POLYLINE
  8
0
 62
     172
 66
     1
 10
0
 20
0
 30
0.0
 40
1.95
 41
1.95
  0
VERTEX
  8
0
 10
4.73301
 20
2.57036
 30
0.0
 40
0.0270833
 41
0.0270833
  0
VERTEX
  8
0
 10
4.72547
 20
2.57036
 30
0.0
 40
0.0270833
 41
0.0270833
  0
VERTEX
  8
0
 10
4.70285
 20
2.57026
 30
0.0
 40
0.0270833
 41
0.0270833
  0
VERTEX
  8
0
 10
4.67117
 20
2.57096
 30
0.0
 40
0.0270833
 41
0.0270833
  0
VERTEX
  8
0
 10
4.64393
 20
2.57422
 30
0.0
 40
0.0270833
 41
0.0270833
  0
VERTEX
  8
0
 10
4.63015
 20
2.57867
 30
0.0
 40
0.0270833
 41
0.0270833
  0
VERTEX
  8
0
 10
4.62739
 20
2.58171
 30
0.0
 40
0.0270833
 41
0.0270833
  0
VERTEX
  8
0
 10
4.62435
 20
2.58501
 30
0.0
 40
0.0270833
 41
0.0270833
  0
VERTEX
  8
0
 10
4.61843
 20
2.59782
 30
0.0
 40
0.0270833
 41
0.0270833
  0
VERTEX
  8
0
 10
4.61014
 20
2.62299
 30
0.0
 40
0.0270833
 41
0.0270833
  0
VERTEX
  8
0
 10
4.60206
 20
2.653
 30
0.0
 40
0.0270833
 41
0.0270833
  0
VERTEX
  8
0
 10
4.59597
 20
2.67594
 30
0.0
 40
0.0270833
 41
0.0270833
  0
VERTEX
  8
0
 10
4.59381
 20
2.68349
 30
0.0
 40
0.0270833
 41
0.0270833
  0
SEQEND
 8
0
  0
POLYLINE
  8
0
 62
     0
 66
     1
 10
0
 20
0
 30
0.0
 40
1.94782
 41
1.94782
  0
VERTEX
  8
0
 10
4.42275
 20
0.592449
 30
0.0
 40
0.0270531
 41
0.0270531
  0
VERTEX
  8
0
 10
3.90104
 20
0.592449
 30
0.0
 40
0.0270531
 41
0.0270531
  0
SEQEND
 8
0
  0
POLYLINE
  8
0
 62
     0
 66
     1
 10
0
 20
0
 30
0.0
 40
1.94782
 41
1.94782
  0
VERTEX
  8
0
 10
4.42275
 20
0.234972
 30
0.0
 40
0.0270531
 41
0.0270531
  0
VERTEX
  8
0
 10
3.90104
 20
0.234972
 30
0.0
 40
0.0270531
 41
0.0270531
  0
SEQEND
 8
0
  0
POLYLINE
  8
0
 62
     0
 66
     1
 10
0
 20
0
 30
0.0
 40
1.94782
 41
1.94782
  0
VERTEX
  8
0
 10
5.81879
 20
0.406304
 30
0.0
 40
0.0270531
 41
0.0270531
  0
VERTEX
  8
0
 10
5.29699
 20
0.406304
 30
0.0
 40
0.0270531
 41
0.0270531
  0
SEQEND
 8
0
  0
POLYLINE
  8
0
 62
     172
 66
     1
 10
0
 20
0
 30
0.0
 70
     1
 40
1.94782
 41
1.94782
  0
VERTEX
  8
0
 10
4.53857
 20
0.720161
 30
0.0
 40
0.0270531
 41
0.0270531
  0
VERTEX
  8
0
 10
4.58197
 20
0.719889
 30
0.0
 40
0.0270531
 41
0.0270531
  0
VERTEX
  8
0
 10
5.01633
 20
0.715983
 30
0.0
 40
0.0270531
 41
0.0270531
  0
VERTEX
  8
0
 10
5.05974
 20
0.713108
 30
0.0
 40
0.0270531
 41
0.0270531
  0
VERTEX
  8
0
 10
5.072
 20
0.711154
 30
0.0
 40
0.0270531
 41
0.0270531
  0
VERTEX
  8
0
 10
5.10851
 20
0.702311
 30
0.0
 40
0.0270531
 41
0.0270531
  0
VERTEX
  8
0
 10
5.14638
 20
0.687175
 30
0.0
 40
0.0270531
 41
0.0270531
  0
VERTEX
  8
0
 10
5.1785
 20
0.666504
 30
0.0
 40
0.0270531
 41
0.0270531
  0
VERTEX
  8
0
 10
5.20258
 20
0.646213
 30
0.0
 40
0.0270531
 41
0.0270531
  0
VERTEX
  8
0
 10
5.21024
 20
0.639051
 30
0.0
 40
0.0270531
 41
0.0270531
  0
VERTEX
  8
0
 10
5.22336
 20
0.626303
 30
0.0
 40
0.0270531
 41
0.0270531
  0
VERTEX
  8
0
 10
5.25564
 20
0.58035
 30
0.0
 40
0.0270531
 41
0.0270531
  0
VERTEX
  8
0
 10
5.28494
 20
0.511882
 30
0.0
 40
0.0270531
 41
0.0270531
  0
VERTEX
  8
0
 10
5.29915
 20
0.438531
 30
0.0
 40
0.0270531
 41
0.0270531
  0
VERTEX
  8
0
 10
5.30106
 20
0.383301
 30
0.0
 40
0.0270531
 41
0.0270531
  0
VERTEX
  8
0
 10
5.29949
 20
0.365072
 30
0.0
 40
0.0270531
 41
0.0270531
  0
VERTEX
  8
0
 10
5.29856
 20
0.350857
 30
0.0
 40
0.0270531
 41
0.0270531
  0
VERTEX
  8
0
 10
5.29004
 20
0.308539
 30
0.0
 40
0.0270531
 41
0.0270531
  0
VERTEX
  8
0
 10
5.26926
 20
0.252929
 30
0.0
 40
0.0270531
 41
0.0270531
  0
VERTEX
  8
0
 10
5.23742
 20
0.20204
 30
0.0
 40
0.0270531
 41
0.0270531
  0
VERTEX
  8
0
 10
5.20654
 20
0.168782
 30
0.0
 40
0.0270531
 41
0.0270531
  0
VERTEX
  8
0
 10
5.19472
 20
0.159668
 30
0.0
 40
0.0270531
 41
0.0270531
  0
VERTEX
  8
0
 10
5.18528
 20
0.152561
 30
0.0
 40
0.0270531
 41
0.0270531
  0
VERTEX
  8
0
 10
5.13331
 20
0.124566
 30
0.0
 40
0.0270531
 41
0.0270531
  0
VERTEX
  8
0
 10
5.0721
 20
0.105957
 30
0.0
 40
0.0270531
 41
0.0270531
  0
VERTEX
  8
0
 10
5.05817
 20
0.103516
 30
0.0
 40
0.0270531
 41
0.0270531
  0
VERTEX
  8
0
 10
5.03201
 20
0.100098
 30
0.0
 40
0.0270531
 41
0.0270531
  0
VERTEX
  8
0
 10
4.90056
 20
0.0942383
 30
0.0
 40
0.0270531
 41
0.0270531
  0
VERTEX
  8
0
 10
4.76878
 20
0.0942925
 30
0.0
 40
0.0270531
 41
0.0270531
  0
VERTEX
  8
0
 10
4.74251
 20
0.0938043
 30
0.0
 40
0.0270531
 41
0.0270531
  0
VERTEX
  8
0
 10
4.72547
 20
0.0938043
 30
0.0
 40
0.0270531
 41
0.0270531
  0
VERTEX
  8
0
 10
4.55556
 20
0.0925564
 30
0.0
 40
0.0270531
 41
0.0270531
  0
VERTEX
  8
0
 10
4.53857
 20
0.0921767
 30
0.0
 40
0.0270531
 41
0.0270531
  0
VERTEX
  8
0
 10
4.53857
 20
0.720161
 30
0.0
 40
0.0270531
 41
0.0270531
  0
SEQEND
 8
0
  0
POLYLINE
  8
0
 62
     0
 66
     1
 10
0
 20
0
 30
0.0
 70
     1
 40
0
 41
0
  0
VERTEX
  8
0
 10
3.76004
 20
0.65039
 30
0.0
 40
0
 41
0
  0
VERTEX
  8
0
 10
3.73107
 20
0.571832
 30
0.0
 40
0
 41
0
  0
VERTEX
  8
0
 10
3.78907
 20
0.571832
 30
0.0
 40
0
 41
0
  0
VERTEX
  8
0
 10
3.76004
 20
0.65039
 30
0.0
 40
0
 41
0
  0
SEQEND
 8
0
  0
POLYLINE
  8
0
 62
     0
 66
     1
 10
0
 20
0
 30
0.0
 70
     1
 40
0
 41
0
  0
VERTEX
  8
0
 10
3.74794
 20
0.671332
 30
0.0
 40
0
 41
0
  0
VERTEX
  8
0
 10
3.77219
 20
0.671332
 30
0.0
 40
0
 41
0
  0
VERTEX
  8
0
 10
3.83231
 20
0.513618
 30
0.0
 40
0
 41
0
  0
VERTEX
  8
0
 10
3.81011
 20
0.513618
 30
0.0
 40
0
 41
0
  0
VERTEX
  8
0
 10
3.79574
 20
0.554036
 30
0.0
 40
0
 41
0
  0
VERTEX
  8
0
 10
3.72461
 20
0.554036
 30
0.0
 40
0
 41
0
  0
VERTEX
  8
0
 10
3.71024
 20
0.513618
 30
0.0
 40
0
 41
0
  0
VERTEX
  8
0
 10
3.68772
 20
0.513618
 30
0.0
 40
0
 41
0
  0
VERTEX
  8
0
 10
3.74794
 20
0.671332
 30
0.0
 40
0
 41
0
  0
SEQEND
 8
0
  0
POLYLINE
  8
0
 62
     0
 66
     1
 10
0
 20
0
 30
0.0
 70
     1
 40
0
 41
0
  0
VERTEX
  8
0
 10
3.73346
 20
0.231446
 30
0.0
 40
0
 41
0
  0
VERTEX
  8
0
 10
3.73346
 20
0.173611
 30
0.0
 40
0
 41
0
  0
VERTEX
  8
0
 10
3.76774
 20
0.173611
 30
0.0
 40
0
 41
0
  0
VERTEX
  8
0
 10
3.77408
 20
0.173611
 30
0.0
 40
0
 41
0
  0
VERTEX
  8
0
 10
3.79178
 20
0.179579
 30
0.0
 40
0
 41
0
  0
VERTEX
  8
0
 10
3.79313
 20
0.180718
 30
0.0
 40
0
 41
0
  0
VERTEX
  8
0
 10
3.79454
 20
0.181913
 30
0.0
 40
0
 41
0
  0
VERTEX
  8
0
 10
3.80149
 20
0.197428
 30
0.0
 40
0
 41
0
  0
VERTEX
  8
0
 10
3.80149
 20
0.202582
 30
0.0
 40
0
 41
0
  0
VERTEX
  8
0
 10
3.80149
 20
0.208063
 30
0.0
 40
0
 41
0
  0
VERTEX
  8
0
 10
3.79454
 20
0.223199
 30
0.0
 40
0
 41
0
  0
VERTEX
  8
0
 10
3.79313
 20
0.224338
 30
0.0
 40
0
 41
0
  0
VERTEX
  8
0
 10
3.79178
 20
0.225532
 30
0.0
 40
0
 41
0
  0
VERTEX
  8
0
 10
3.77371
 20
0.231446
 30
0.0
 40
0
 41
0
  0
VERTEX
  8
0
 10
3.76774
 20
0.231446
 30
0.0
 40
0
 41
0
  0
VERTEX
  8
0
 10
3.73346
 20
0.231446
 30
0.0
 40
0
 41
0
  0
SEQEND
 8
0
  0
POLYLINE
  8
0
 62
     0
 66
     1
 10
0
 20
0
 30
0.0
 70
     1
 40
0
 41
0
  0
VERTEX
  8
0
 10
3.73346
 20
0.296332
 30
0.0
 40
0
 41
0
  0
VERTEX
  8
0
 10
3.73346
 20
0.248807
 30
0.0
 40
0
 41
0
  0
VERTEX
  8
0
 10
3.76503
 20
0.248807
 30
0.0
 40
0
 41
0
  0
VERTEX
  8
0
 10
3.77083
 20
0.248807
 30
0.0
 40
0
 41
0
  0
VERTEX
  8
0
 10
3.78706
 20
0.253635
 30
0.0
 40
0
 41
0
  0
VERTEX
  8
0
 10
3.78836
 20
0.254557
 30
0.0
 40
0
 41
0
  0
VERTEX
  8
0
 10
3.78961
 20
0.255588
 30
0.0
 40
0
 41
0
  0
VERTEX
  8
0
 10
3.79606
 20
0.268337
 30
0.0
 40
0
 41
0
  0
VERTEX
  8
0
 10
3.79606
 20
0.272569
 30
0.0
 40
0
 41
0
  0
VERTEX
  8
0
 10
3.79606
 20
0.277018
 30
0.0
 40
0
 41
0
  0
VERTEX
  8
0
 10
3.78961
 20
0.289387
 30
0.0
 40
0
 41
0
  0
VERTEX
  8
0
 10
3.78836
 20
0.290365
 30
0.0
 40
0
 41
0
  0
VERTEX
  8
0
 10
3.78706
 20
0.291396
 30
0.0
 40
0
 41
0
  0
VERTEX
  8
0
 10
3.77051
 20
0.296332
 30
0.0
 40
0
 41
0
  0
VERTEX
  8
0
 10
3.76503
 20
0.296332
 30
0.0
 40
0
 41
0
  0
VERTEX
  8
0
 10
3.73346
 20
0.296332
 30
0.0
 40
0
 41
0
  0
SEQEND
 8
0
  0
POLYLINE
  8
0
 62
     0
 66
     1
 10
0
 20
0
 30
0.0
 70
     1
 40
0
 41
0
  0
VERTEX
  8
0
 10
3.71213
 20
0.313911
 30
0.0
 40
0
 41
0
  0
VERTEX
  8
0
 10
3.76671
 20
0.313911
 30
0.0
 40
0
 41
0
  0
VERTEX
  8
0
 10
3.7761
 20
0.313911
 30
0.0
 40
0
 41
0
  0
VERTEX
  8
0
 10
3.80208
 20
0.305447
 30
0.0
 40
0
 41
0
  0
VERTEX
  8
0
 10
3.80431
 20
0.303711
 30
0.0
 40
0
 41
0
  0
VERTEX
  8
0
 10
3.80647
 20
0.302029
 30
0.0
 40
0
 41
0
  0
VERTEX
  8
0
 10
3.81754
 20
0.281685
 30
0.0
 40
0
 41
0
  0
VERTEX
  8
0
 10
3.81754
 20
0.274849
 30
0.0
 40
0
 41
0
  0
VERTEX
  8
0
 10
3.81754
 20
0.269097
 30
0.0
 40
0
 41
0
  0
VERTEX
  8
0
 10
3.81185
 20
0.25331
 30
0.0
 40
0
 41
0
  0
VERTEX
  8
0
 10
3.81076
 20
0.251844
 30
0.0
 40
0
 41
0
  0
VERTEX
  8
0
 10
3.80957
 20
0.250435
 30
0.0
 40
0
 41
0
  0
VERTEX
  8
0
 10
3.79303
 20
0.24159
 30
0.0
 40
0
 41
0
  0
VERTEX
  8
0
 10
3.79085
 20
0.241211
 30
0.0
 40
0
 41
0
  0
VERTEX
  8
0
 10
3.79346
 20
0.240668
 30
0.0
 40
0
 41
0
  0
VERTEX
  8
0
 10
3.81375
 20
0.228842
 30
0.0
 40
0
 41
0
  0
VERTEX
  8
0
 10
3.81521
 20
0.227051
 30
0.0
 40
0
 41
0
  0
VERTEX
  8
0
 10
3.81668
 20
0.225261
 30
0.0
 40
0
 41
0
  0
VERTEX
  8
0
 10
3.82411
 20
0.206543
 30
0.0
 40
0
 41
0
  0
VERTEX
  8
0
 10
3.82411
 20
0.200304
 30
0.0
 40
0
 41
0
  0
VERTEX
  8
0
 10
3.82411
 20
0.192165
 30
0.0
 40
0
 41
0
  0
VERTEX
  8
0
 10
3.81212
 20
0.169542
 30
0.0
 40
0
 41
0
  0
VERTEX
  8
0
 10
3.80974
 20
0.167589
 30
0.0
 40
0
 41
0
  0
VERTEX
  8
0
 10
3.80729
 20
0.16569
 30
0.0
 40
0
 41
0
  0
VERTEX
  8
0
 10
3.77838
 20
0.156088
 30
0.0
 40
0
 41
0
  0
VERTEX
  8
0
 10
3.76878
 20
0.156088
 30
0.0
 40
0
 41
0
  0
VERTEX
  8
0
 10
3.71213
 20
0.156088
 30
0.0
 40
0
 41
0
  0
VERTEX
  8
0
 10
3.71213
 20
0.313911
 30
0.0
 40
0
 41
0
  0
SEQEND
 8
0
  0
POLYLINE
  8
0
 62
     0
 66
     1
 10
0
 20
0
 30
0.0
 70
     1
 40
0
 41
0
  0
VERTEX
  8
0
 10
5.89085
 20
0.486654
 30
0.0
 40
0
 41
0
  0
VERTEX
  8
0
 10
5.91379
 20
0.486654
 30
0.0
 40
0
 41
0
  0
VERTEX
  8
0
 10
5.95751
 20
0.421821
 30
0.0
 40
0
 41
0
  0
VERTEX
  8
0
 10
6.00097
 20
0.486654
 30
0.0
 40
0
 41
0
  0
VERTEX
  8
0
 10
6.02387
 20
0.486654
 30
0.0
 40
0
 41
0
  0
VERTEX
  8
0
 10
5.96804
 20
0.404025
 30
0.0
 40
0
 41
0
  0
VERTEX
  8
0
 10
5.96804
 20
0.328939
 30
0.0
 40
0
 41
0
  0
VERTEX
  8
0
 10
5.94656
 20
0.328939
 30
0.0
 40
0
 41
0
  0
VERTEX
  8
0
 10
5.94656
 20
0.404025
 30
0.0
 40
0
 41
0
  0
VERTEX
  8
0
 10
5.89085
 20
0.486654
 30
0.0
 40
0
 41
0
  0
SEQEND
 8
0
  0
POLYLINE
  8
0
 62
     172
 66
     1
 10
0
 20
0
 30
0.0
 70
     1
 40
1.94782
 41
1.94782
  0
VERTEX
  8
0
 10
4.51579
 20
0.593371
 30
0.0
 40
0.0270531
 41
0.0270531
  0
VERTEX
  8
0
 10
4.51579
 20
0.598633
 30
0.0
 40
0.0270531
 41
0.0270531
  0
VERTEX
  8
0
 10
4.51178
 20
0.614312
 30
0.0
 40
0.0270531
 41
0.0270531
  0
VERTEX
  8
0
 10
4.50136
 20
0.629232
 30
0.0
 40
0.0270531
 41
0.0270531
  0
VERTEX
  8
0
 10
4.48654
 20
0.638237
 30
0.0
 40
0.0270531
 41
0.0270531
  0
VERTEX
  8
0
 10
4.46962
 20
0.641222
 30
0.0
 40
0.0270531
 41
0.0270531
  0
VERTEX
  8
0
 10
4.45269
 20
0.638237
 30
0.0
 40
0.0270531
 41
0.0270531
  0
VERTEX
  8
0
 10
4.43788
 20
0.629232
 30
0.0
 40
0.0270531
 41
0.0270531
  0
VERTEX
  8
0
 10
4.42746
 20
0.614312
 30
0.0
 40
0.0270531
 41
0.0270531
  0
VERTEX
  8
0
 10
4.4235
 20
0.598633
 30
0.0
 40
0.0270531
 41
0.0270531
  0
VERTEX
  8
0
 10
4.4235
 20
0.593371
 30
0.0
 40
0.0270531
 41
0.0270531
  0
VERTEX
  8
0
 10
4.4235
 20
0.588162
 30
0.0
 40
0.0270531
 41
0.0270531
  0
VERTEX
  8
0
 10
4.42746
 20
0.572483
 30
0.0
 40
0.0270531
 41
0.0270531
  0
VERTEX
  8
0
 10
4.43788
 20
0.557508
 30
0.0
 40
0.0270531
 41
0.0270531
  0
VERTEX
  8
0
 10
4.45269
 20
0.548557
 30
0.0
 40
0.0270531
 41
0.0270531
  0
VERTEX
  8
0
 10
4.46962
 20
0.545518
 30
0.0
 40
0.0270531
 41
0.0270531
  0
VERTEX
  8
0
 10
4.48654
 20
0.548557
 30
0.0
 40
0.0270531
 41
0.0270531
  0
VERTEX
  8
0
 10
4.50136
 20
0.557508
 30
0.0
 40
0.0270531
 41
0.0270531
  0
VERTEX
  8
0
 10
4.51178
 20
0.572483
 30
0.0
 40
0.0270531
 41
0.0270531
  0
VERTEX
  8
0
 10
4.51579
 20
0.588162
 30
0.0
 40
0.0270531
 41
0.0270531
  0
VERTEX
  8
0
 10
4.51579
 20
0.593371
 30
0.0
 40
0.0270531
 41
0.0270531
  0
SEQEND
 8
0
  0
POLYLINE
  8
0
 62
     172
 66
     1
 10
0
 20
0
 30
0.0
 70
     1
 40
1.94782
 41
1.94782
  0
VERTEX
  8
0
 10
4.51671
 20
0.232964
 30
0.0
 40
0.0270531
 41
0.0270531
  0
VERTEX
  8
0
 10
4.51671
 20
0.238226
 30
0.0
 40
0.0270531
 41
0.0270531
  0
VERTEX
  8
0
 10
4.51269
 20
0.253907
 30
0.0
 40
0.0270531
 41
0.0270531
  0
VERTEX
  8
0
 10
4.50228
 20
0.268826
 30
0.0
 40
0.0270531
 41
0.0270531
  0
VERTEX
  8
0
 10
4.48753
 20
0.277832
 30
0.0
 40
0.0270531
 41
0.0270531
  0
VERTEX
  8
0
 10
4.4706
 20
0.280817
 30
0.0
 40
0.0270531
 41
0.0270531
  0
VERTEX
  8
0
 10
4.45361
 20
0.277832
 30
0.0
 40
0.0270531
 41
0.0270531
  0
VERTEX
  8
0
 10
4.43886
 20
0.268826
 30
0.0
 40
0.0270531
 41
0.0270531
  0
VERTEX
  8
0
 10
4.42844
 20
0.253907
 30
0.0
 40
0.0270531
 41
0.0270531
  0
VERTEX
  8
0
 10
4.42449
 20
0.238226
 30
0.0
 40
0.0270531
 41
0.0270531
  0
VERTEX
  8
0
 10
4.42449
 20
0.232964
 30
0.0
 40
0.0270531
 41
0.0270531
  0
VERTEX
  8
0
 10
4.42449
 20
0.227756
 30
0.0
 40
0.0270531
 41
0.0270531
  0
VERTEX
  8
0
 10
4.42844
 20
0.212076
 30
0.0
 40
0.0270531
 41
0.0270531
  0
VERTEX
  8
0
 10
4.43886
 20
0.197103
 30
0.0
 40
0.0270531
 41
0.0270531
  0
VERTEX
  8
0
 10
4.45361
 20
0.188151
 30
0.0
 40
0.0270531
 41
0.0270531
  0
VERTEX
  8
0
 10
4.4706
 20
0.185113
 30
0.0
 40
0.0270531
 41
0.0270531
  0
VERTEX
  8
0
 10
4.48753
 20
0.188151
 30
0.0
 40
0.0270531
 41
0.0270531
  0
VERTEX
  8
0
 10
4.50228
 20
0.197103
 30
0.0
 40
0.0270531
 41
0.0270531
  0
VERTEX
  8
0
 10
4.51269
 20
0.212076
 30
0.0
 40
0.0270531
 41
0.0270531
  0
VERTEX
  8
0
 10
4.51671
 20
0.227756
 30
0.0
 40
0.0270531
 41
0.0270531
  0
VERTEX
  8
0
 10
4.51671
 20
0.232964
 30
0.0
 40
0.0270531
 41
0.0270531
  0
SEQEND
 8
0
  0
POLYLINE
  8
0
 62
     0
 66
     1
 10
0
 20
0
 30
0.0
 40
1.94782
 41
1.94782
  0
VERTEX
  8
0
 10
5.4854
 20
5.86632
 30
0.0
 40
0.0270531
 41
0.0270531
  0
VERTEX
  8
0
 10
4.96376
 20
5.86632
 30
0.0
 40
0.0270531
 41
0.0270531
  0
SEQEND
 8
0
  0
POLYLINE
  8
0
 62
     0
 66
     1
 10
0
 20
0
 30
0.0
 70
     1
 40
0
 41
0
  0
VERTEX
  8
0
 10
5.55751
 20
5.94672
 30
0.0
 40
0
 41
0
  0
VERTEX
  8
0
 10
5.5804
 20
5.94672
 30
0.0
 40
0
 41
0
  0
VERTEX
  8
0
 10
5.62418
 20
5.88183
 30
0.0
 40
0
 41
0
  0
VERTEX
  8
0
 10
5.66758
 20
5.94672
 30
0.0
 40
0
 41
0
  0
VERTEX
  8
0
 10
5.69054
 20
5.94672
 30
0.0
 40
0
 41
0
  0
VERTEX
  8
0
 10
5.63476
 20
5.8641
 30
0.0
 40
0
 41
0
  0
VERTEX
  8
0
 10
5.63476
 20
5.7889
 30
0.0
 40
0
 41
0
  0
VERTEX
  8
0
 10
5.61333
 20
5.7889
 30
0.0
 40
0
 41
0
  0
VERTEX
  8
0
 10
5.61333
 20
5.8641
 30
0.0
 40
0
 41
0
  0
VERTEX
  8
0
 10
5.55751
 20
5.94672
 30
0.0
 40
0
 41
0
  0
SEQEND
 8
0
  0
POLYLINE
  8
0
 62
     0
 66
     1
 10
0
 20
0
 30
0.0
 40
1.94782
 41
1.94782
  0
VERTEX
  8
0
 10
4.44054
 20
5.86632
 30
0.0
 40
0.0270531
 41
0.0270531
  0
VERTEX
  8
0
 10
3.91872
 20
5.86632
 30
0.0
 40
0.0270531
 41
0.0270531
  0
SEQEND
 8
0
  0
POLYLINE
  8
0
 62
     172
 66
     1
 10
0
 20
0
 30
0.0
 70
     1
 40
1.95
 41
1.95
  0
VERTEX
  8
0
 10
4.95606
 20
5.8655
 30
0.0
 40
0.0270833
 41
0.0270833
  0
VERTEX
  8
0
 10
4.43306
 20
5.56353
 30
0.0
 40
0.0270833
 41
0.0270833
  0
VERTEX
  8
0
 10
4.43306
 20
6.16749
 30
0.0
 40
0.0270833
 41
0.0270833
  0
VERTEX
  8
0
 10
4.95606
 20
5.8655
 30
0.0
 40
0.0270833
 41
0.0270833
  0
SEQEND
 8
0
  0
ENDSEC
  0
EOF
